<svg width="150" height="150" viewBox="0 0 150 150" fill="none" xmlns="http://www.w3.org/2000/svg">
<circle cx="75" cy="75" r="68.1818" fill="#3656FF"/>
<circle cx="74.3182" cy="74.3182" r="49.6364" fill="#666666" stroke="white" stroke-width="3"/>
<path fill-rule="evenodd" clip-rule="evenodd" d="M47.7273 43.2727C47.7273 42.7204 48.175 42.2727 48.7273 42.2727H101.273C101.825 42.2727 102.273 42.7204 102.273 43.2727L102.273 53.1817V54.5454L66.1363 95.4545L64.1219 95.4545H101.273C101.825 95.4545 102.273 95.9023 102.273 96.4545V106.727C102.273 107.28 101.825 107.727 101.273 107.727H48.7273C48.175 107.727 47.7273 107.28 47.7273 106.727L47.7273 96.8182L47.7273 96.4545L47.7273 95.4546L85.9091 54.5455H48.7273C48.175 54.5455 47.7273 54.0977 47.7273 53.5455V43.2727Z" fill="#FF2626"/>
</svg>
