<svg width="50" height="45" viewBox="0 0 50 45" fill="none" xmlns="http://www.w3.org/2000/svg">
<path d="M0.407117 2.00004C0.400294 1.99976 0.396134 2.00098 0.394565 2.0036C0.382004 2.02458 0.5326 2.13433 0.697544 2.31989C0.862488 2.50545 1.04184 2.76684 1.24265 3.13958C1.44346 3.51232 1.66581 3.99662 1.7841 4.27891C1.9024 4.56121 1.91675 4.64188 2.07993 4.72097C2.24309 4.80006 2.55504 4.87752 2.77558 4.95175C2.99611 5.02598 3.12523 5.09701 3.08578 5.11798C3.04634 5.13895 2.83837 5.10989 2.65372 5.07601C2.46906 5.04213 2.3077 5.00338 2.42064 5.13893C2.53358 5.27447 2.92084 5.58426 3.52507 5.94088C4.12931 6.2975 4.9504 6.70096 5.65864 6.98013C6.36687 7.2593 6.96206 7.41418 7.31533 7.5094C7.66859 7.60462 7.77975 7.64011 7.76002 7.65947C7.7403 7.67882 7.58971 7.682 7.21857 7.59648C6.84742 7.51096 6.25567 7.3367 5.69629 7.16566C5.1369 6.99461 4.60977 6.82682 3.94817 6.53636C3.28657 6.2459 2.4905 5.83281 1.90421 5.5004C1.31793 5.16799 0.941457 4.91625 0.679668 4.66935C0.417882 4.42245 0.270826 4.18045 0.163243 3.99487C0.0556564 3.80928 -0.0124461 3.68014 0.00190194 3.82214C0.01625 3.96414 0.113103 4.37726 0.295982 4.83715C0.478858 5.29704 0.747743 5.80374 1.01848 6.19748C1.28922 6.59121 1.56175 6.87194 1.96697 7.1495C2.37219 7.42706 2.91001 7.70138 3.33498 7.85308C3.75995 8.00477 4.07189 8.03383 4.43767 8.07578C4.80344 8.11774 5.22299 8.1726 5.70352 8.23715C6.18404 8.30169 6.7254 8.3759 7.16471 8.41624C7.60402 8.45658 7.94126 8.46303 8.11868 8.47916C8.2961 8.49529 8.31399 8.5211 8.12576 8.52756C7.93752 8.53402 7.54303 8.52115 7.0697 8.47758C6.59637 8.43402 6.04416 8.35976 5.53678 8.30328C5.02939 8.2468 4.56671 8.2081 4.14001 8.18066C3.71331 8.15323 3.32239 8.13708 3.03018 8.11611C2.73796 8.09513 2.54436 8.06935 2.5031 8.08064C2.46184 8.09194 2.57301 8.14031 2.71107 8.20648C2.84913 8.27264 3.01406 8.35658 2.98537 8.36948C2.95668 8.38239 2.73435 8.32428 2.42239 8.25974C2.11043 8.19519 1.70879 8.12419 1.36634 8.0193C1.02388 7.91442 0.740589 7.77566 0.52723 7.65625C0.313871 7.53684 0.170452 7.43673 0.240374 7.5513C0.310295 7.66587 0.59358 7.99506 1.00418 8.29198C1.41477 8.58891 1.95266 8.85352 2.47442 9.07621C2.99618 9.2989 3.50171 9.47963 3.95714 9.61034C4.41257 9.74105 4.81775 9.82175 5.33413 9.87823C5.85051 9.93471 6.47804 9.967 7.10918 9.95409C7.74032 9.94118 8.37484 9.88308 8.78192 9.83305C9.189 9.78301 9.36848 9.74101 9.44546 9.73618C9.52244 9.73135 9.49734 9.76362 9.17641 9.83141C8.85548 9.89919 8.23868 10.0024 7.60758 10.0557C6.97648 10.1089 6.33102 10.1122 5.79495 10.0654C5.25887 10.0186 4.83204 9.92177 4.5291 9.92499C4.22615 9.92822 4.0468 10.0315 3.74917 10.1041C3.45155 10.1767 3.03559 10.2187 2.57841 10.2429C2.12122 10.2671 1.62273 10.2736 1.29286 10.2526C0.962979 10.2316 0.801587 10.1832 0.925294 10.2655C1.049 10.3478 1.45777 10.5608 1.89706 10.7222C2.33636 10.8835 2.80609 10.9932 3.21312 11.0675C3.62014 11.1417 3.96431 11.1804 4.46277 11.1691C4.96122 11.1578 5.61383 11.0965 6.27007 11.0061C6.92631 10.9158 7.58607 10.7964 8.18136 10.6673C8.77665 10.5382 9.30716 10.3995 9.64073 10.3252C9.9743 10.251 10.1106 10.2413 9.77712 10.3478C9.44363 10.4543 8.64033 10.677 7.88553 10.8513C7.13073 11.0255 6.42419 11.1514 5.93119 11.2756C5.43819 11.3998 5.15845 11.5225 4.8196 11.6371C4.48075 11.7516 4.08269 11.8582 3.67211 11.9163C3.26154 11.9744 2.83822 11.984 2.56578 12.0098C2.29334 12.0357 2.17144 12.0776 2.34176 12.1115C2.51208 12.1454 2.97456 12.1712 3.27222 12.2002C3.56989 12.2293 3.70255 12.2616 3.49457 12.2664C3.28659 12.2713 2.73777 12.2486 2.40079 12.2373C2.0638 12.2261 1.93835 12.2261 2.20012 12.2793C2.46188 12.3326 3.11087 12.4391 3.73305 12.5262C4.35522 12.6134 4.95035 12.6811 5.35383 12.6908C5.75731 12.7004 5.96881 12.6521 6.21804 12.5165C6.46725 12.381 6.75408 12.1584 6.97287 12.0309C7.19165 11.9034 7.3423 11.8711 7.25264 11.9614C7.16298 12.0518 6.83292 12.2648 6.61603 12.4229C6.39914 12.581 6.29522 12.6843 6.37231 12.6924C6.4494 12.7005 6.70756 12.6133 7.02672 12.5262C7.34588 12.439 7.72592 12.3519 8.14728 12.2349C8.56864 12.118 9.03113 11.9711 9.4104 11.8355C9.78966 11.7 10.0855 11.5757 10.2487 11.5088C10.4118 11.4418 10.4423 11.4321 10.1706 11.5548C9.89899 11.6774 9.32525 11.9324 8.69954 12.1518C8.07382 12.3713 7.39593 12.5553 6.91909 12.7134C6.4422 12.8715 6.16611 13.0039 5.78423 13.2152C5.40234 13.4266 4.91456 13.7171 4.47532 13.9075C4.03608 14.0979 3.64514 14.1883 3.34038 14.248C3.03562 14.3077 2.81687 14.3367 3.06608 14.3642C3.31529 14.3916 4.03241 14.4174 4.64921 14.4271C5.26601 14.4368 5.78234 14.4303 6.22344 14.3835C6.66454 14.3367 7.0302 14.2496 7.3189 14.1673C7.6076 14.085 7.81912 14.0076 8.00024 13.9559C8.18136 13.9043 8.33196 13.8784 8.23872 13.93C8.14547 13.9817 7.80837 14.1108 7.42829 14.2787C7.0482 14.4465 6.62504 14.653 6.17324 14.9499C5.72143 15.2468 5.24081 15.6342 4.91096 15.8923C4.58112 16.1504 4.40186 16.2795 4.42694 16.2957C4.45202 16.3118 4.68152 16.215 5.00787 16.1375C5.33422 16.0601 5.75725 16.002 6.35253 15.8616C6.9478 15.7212 7.71508 15.4986 8.27097 15.2839C8.82686 15.0693 9.17104 14.8628 9.71254 14.5158C10.254 14.1689 10.9925 13.6817 11.4911 13.3524C11.9896 13.0232 12.2477 12.8522 12.3912 12.7634C12.5347 12.6746 12.5633 12.6682 12.0613 13.0216C11.5593 13.3749 10.5265 14.0882 9.795 14.6804C9.06347 15.2726 8.63309 15.7439 8.27812 16.0892C7.92315 16.4345 7.64353 16.6539 8.01287 16.5474C8.38221 16.4409 9.40048 16.0085 10.1812 15.643C10.9619 15.2776 11.5048 14.9792 11.9102 14.7414C12.3156 14.5036 12.5833 14.3265 12.8497 14.1304C13.1162 13.9342 13.3812 13.7191 13.3882 13.7343C13.3952 13.7494 13.1442 13.9946 12.681 14.3206C12.2178 14.6465 11.5423 15.0532 11.0678 15.3951C10.5934 15.7369 10.3199 16.014 9.9844 16.2471C9.64893 16.4801 9.25144 16.6691 8.85761 16.8475C8.46377 17.026 8.07366 17.1939 8.18281 17.2318C8.29195 17.2698 8.90026 17.1778 9.44059 17.0535C9.98093 16.9291 10.453 16.7725 10.8635 16.5748C11.2739 16.3771 11.6227 16.1384 11.9614 15.956C12.3002 15.7737 12.6287 15.6476 13.019 15.4129C13.4093 15.1782 13.8613 14.8349 13.8738 14.8422C13.8862 14.8496 13.4592 15.2076 13.0737 15.457C12.6881 15.7064 12.344 15.8473 11.9801 16.0943C11.6163 16.3412 11.2327 16.6945 10.9048 16.984C10.5768 17.2736 10.3042 17.4994 10.4333 17.5188C10.5624 17.5382 11.0931 17.351 11.6776 17.1122C12.2621 16.8734 12.9003 16.5829 13.3737 16.286C13.8471 15.9891 14.1555 15.6856 14.2019 15.6627C14.2482 15.6397 14.0327 15.8972 13.6918 16.1855C13.3509 16.4739 12.8848 16.7931 12.3435 17.0937C11.8023 17.3942 11.1858 17.676 10.763 17.8524C10.3401 18.0288 10.1106 18.0997 10.1931 18.1126C10.2755 18.1255 10.6699 18.0804 11.18 18.003C11.6902 17.9255 12.3159 17.8158 12.8977 17.6294C13.4796 17.443 14.0173 17.18 14.3679 17.0025C14.7185 16.8249 14.8816 16.733 14.6933 16.8564C14.5051 16.9799 13.9654 17.3188 13.4741 17.5447C12.9828 17.7706 12.54 17.8835 12.6081 17.9279C12.6763 17.9723 13.2553 17.9481 13.8587 17.8238C14.4621 17.6995 15.0893 17.4754 15.4597 17.3325C15.8301 17.1896 15.9431 17.1283 15.822 17.192C15.701 17.2558 15.346 17.4446 14.9614 17.6044C14.5768 17.7641 14.1627 17.8948 14.1555 17.94C14.1484 17.9852 14.548 17.9448 14.9882 17.8536C15.4285 17.7625 15.9087 17.6206 16.2621 17.4486C16.4398 17.3621 16.5853 17.2682 16.7424 17.2013C16.8425 17.0815 16.9842 16.9881 17.1461 16.9425C17.4702 16.8251 17.8259 16.8661 18.1541 16.9378C18.4943 16.8256 18.8057 17.052 19.0718 17.2112C19.1271 17.0324 19.403 17.0962 19.5246 17.1897C19.6277 17.2273 19.713 17.4116 19.8183 17.3348C20.011 17.296 20.1608 17.4813 20.2863 17.5877C20.1983 17.3797 20.058 17.198 19.8892 17.0374C19.7603 16.9498 19.7621 16.7353 19.5834 16.7163C19.0814 16.7807 18.6497 16.3952 18.5399 15.9798C18.4462 15.7949 18.5975 15.5656 18.4369 15.4076C18.4158 15.6091 18.4604 15.8857 18.5091 16.1109C18.5296 16.3281 18.6795 16.5269 18.6685 16.7444C18.609 16.9383 18.3568 16.8446 18.2551 16.7298C17.7242 16.1781 17.4961 15.4222 17.5107 14.7014C17.4924 14.3255 17.7423 13.8527 18.2125 13.8423C18.8066 13.8988 19.204 14.3718 19.5244 14.7775C19.7329 14.7183 19.9319 14.8766 20.0252 15.0386C20.1288 15.1546 20.1341 15.3426 20.2853 15.4142C20.1933 15.1059 20.151 14.7839 20.1804 14.4652C20.1851 14.2822 20.2427 14.067 20.3655 13.9084C20.2394 13.9632 20.1067 14.0055 19.9689 14.0316C20.0099 13.7336 20.1808 13.4697 20.3711 13.2297C20.1473 13.3237 19.804 13.4815 19.5 13.5159C19.2968 13.599 19.2982 13.3448 19.3802 13.2344C19.0609 13.3348 18.6428 13.4035 18.2782 13.3357C18.07 13.3584 18.0621 13.117 18.1855 13.0194C18.1124 13.0103 17.9441 12.9912 17.8806 12.8987C17.8608 12.7766 18.0391 12.6554 18.158 12.5801C17.8617 12.5978 17.4933 12.574 17.2544 12.3678C17.42 12.1805 17.6602 12.0597 17.913 11.9943C17.624 11.9685 17.2511 11.9143 17.0104 11.71C17.093 11.6186 17.1937 11.5376 17.3167 11.4938C17.039 11.4328 16.7291 11.4682 16.4745 11.3333C16.3045 11.2818 16.3772 11.1052 16.479 11.0214C16.6147 10.9461 16.3787 10.9963 16.3226 10.9781C16.1371 10.9493 15.8789 10.979 15.759 10.8227C15.3822 10.9151 15.0258 11.2153 14.5963 11.1737C14.4169 11.2005 14.482 11.0173 14.5285 10.9215C14.4192 10.9485 14.3063 10.97 14.1923 10.9654C14.0248 11.0002 13.8711 10.8568 13.9279 10.7081C13.7803 10.7082 13.4545 10.831 13.3495 10.6138C13.1952 10.666 12.8835 10.7269 12.7785 10.5294C12.4801 10.6131 12.1331 10.7554 11.7897 10.7366C11.6452 10.7678 11.6149 10.6666 11.6511 10.5627C11.5163 10.6096 11.2966 10.653 11.1438 10.5609C11.1667 10.3687 11.2821 10.1971 11.4299 10.0611C11.3504 10.0822 11.2699 10.1002 11.1882 10.1124C10.8585 10.1189 10.4984 10.1873 10.1882 10.0529C9.96504 9.97403 10.1133 9.71861 10.2509 9.61999C10.1899 9.59273 10.0236 9.58891 9.92294 9.56255C9.63906 9.4703 9.26728 9.4652 9.0852 9.21676C8.97749 9.10509 9.09643 9.0162 9.21406 8.96797C9.26828 8.9256 9.50516 8.91091 9.336 8.88609C9.03954 8.76882 8.6599 8.65689 8.535 8.35846C8.44131 8.19548 8.66596 8.1142 8.81242 8.09187C8.39569 7.91835 8.01772 7.66634 7.72579 7.34619C7.86052 7.27232 8.01643 7.22448 8.17573 7.23562C7.92342 7.10573 7.69054 6.94028 7.51075 6.73346C7.39024 6.5446 7.17565 6.3482 7.17741 6.12196C7.01384 6.0405 6.85317 5.95696 6.68959 5.86831C6.02261 5.50685 5.30546 5.06148 4.63848 4.62902C3.97151 4.19657 3.35475 3.77703 2.71647 3.36071C2.07819 2.94439 1.41835 2.53129 1.0006 2.29086C0.63507 2.08048 0.454874 2.00225 0.407117 2.00004V2.00004ZM49.5929 2.00004C49.5451 2.00225 49.3649 2.08049 48.9994 2.29087C48.5816 2.5313 47.9218 2.94439 47.2835 3.36071C46.6452 3.77703 46.0285 4.19657 45.3615 4.62903C44.6945 5.06148 43.9774 5.50686 43.3104 5.86832C43.1468 5.95697 42.9862 6.0405 42.8226 6.12196C42.8244 6.3482 42.6098 6.54461 42.4893 6.73346C42.3095 6.94029 42.0766 7.10574 41.8243 7.23563C41.9836 7.22449 42.1395 7.27232 42.2742 7.34619C41.9823 7.66634 41.6043 7.91836 41.1876 8.09187C41.334 8.1142 41.5587 8.19548 41.465 8.35846C41.3401 8.6569 40.9605 8.76882 40.664 8.88609C40.4948 8.91091 40.7317 8.9256 40.7859 8.96797C40.9036 9.0162 41.0225 9.10509 40.9148 9.21676C40.7327 9.46521 40.3609 9.47031 40.0771 9.56256C39.9764 9.58892 39.8101 9.59274 39.7491 9.62C39.8867 9.71862 40.035 9.97404 39.8118 10.0529C39.5016 10.1873 39.1415 10.1189 38.8118 10.1124C38.7301 10.1002 38.6496 10.0822 38.5701 10.0611C38.7179 10.1971 38.8333 10.3687 38.8562 10.5609C38.7034 10.653 38.4837 10.6096 38.3489 10.5627C38.3851 10.6666 38.3548 10.7678 38.2103 10.7366C37.8669 10.7554 37.5198 10.6131 37.2215 10.5294C37.1165 10.7269 36.8048 10.666 36.6505 10.6138C36.5455 10.831 36.2197 10.7082 36.0721 10.7081C36.1289 10.8568 35.9752 11.0002 35.8077 10.9654C35.6937 10.97 35.5808 10.9485 35.4715 10.9215C35.518 11.0173 35.5831 11.2005 35.4037 11.1737C34.9742 11.2153 34.6178 10.9151 34.241 10.8227C34.1211 10.979 33.8629 10.9493 33.6774 10.9781C33.6213 10.9963 33.3853 10.9461 33.521 11.0214C33.6228 11.1052 33.6955 11.2818 33.5255 11.3333C33.2709 11.4682 32.961 11.4328 32.6833 11.4938C32.8063 11.5376 32.907 11.6186 32.9896 11.71C32.7489 11.9143 32.376 11.9685 32.087 11.9943C32.3398 12.0597 32.58 12.1805 32.7456 12.3678C32.5067 12.574 32.1384 12.5978 31.842 12.5801C31.9609 12.6554 32.1392 12.7766 32.1194 12.8987C32.0559 12.9912 31.8876 13.0103 31.8145 13.0194C31.9379 13.117 31.93 13.3584 31.7218 13.3357C31.3572 13.4035 30.9391 13.3348 30.6198 13.2344C30.7018 13.3448 30.7032 13.599 30.5 13.5159C30.196 13.4815 29.8527 13.3237 29.6289 13.2297C29.8192 13.4697 29.9901 13.7336 30.0311 14.0316C29.8933 14.0055 29.7606 13.9632 29.6345 13.9084C29.7573 14.067 29.8149 14.2822 29.8196 14.4652C29.849 14.7839 29.8067 15.1059 29.7147 15.4142C29.8659 15.3426 29.8712 15.1546 29.9748 15.0386C30.0681 14.8766 30.2671 14.7183 30.4756 14.7775C30.796 14.3718 31.1934 13.8988 31.7875 13.8424C32.2577 13.8527 32.5076 14.3256 32.4893 14.7014C32.5039 15.4222 32.2758 16.1781 31.7449 16.7298C31.6432 16.8446 31.391 16.9383 31.3315 16.7444C31.3205 16.5269 31.4704 16.3281 31.4909 16.1109C31.5396 15.8857 31.5842 15.6091 31.5631 15.4077C31.4025 15.5656 31.5538 15.795 31.4601 15.9799C31.3503 16.3952 30.9186 16.7807 30.4166 16.7163C30.2379 16.7353 30.2397 16.9498 30.1108 17.0374C29.942 17.198 29.8017 17.3797 29.7137 17.5877C29.8392 17.4813 29.989 17.296 30.1817 17.3348C30.287 17.4116 30.3723 17.2273 30.4754 17.1897C30.597 17.0962 30.8729 17.0324 30.9282 17.2112C31.1943 17.052 31.5057 16.8256 31.8459 16.9378C32.1741 16.8661 32.5298 16.8251 32.8539 16.9425C33.0158 16.9881 33.1575 17.0815 33.2576 17.2013C33.4147 17.2682 33.5602 17.3621 33.7379 17.4486C34.0913 17.6206 34.5716 17.7625 35.0118 17.8536C35.452 17.9448 35.8516 17.9852 35.8445 17.94C35.8373 17.8948 35.4232 17.7641 35.0386 17.6044C34.654 17.4446 34.299 17.2558 34.178 17.192C34.0569 17.1283 34.1699 17.1896 34.5403 17.3325C34.9107 17.4754 35.5379 17.6995 36.1413 17.8238C36.7447 17.9481 37.3237 17.9723 37.3918 17.9279C37.46 17.8835 37.0172 17.7706 36.5259 17.5447C36.0346 17.3188 35.4949 16.9799 35.3067 16.8564C35.1184 16.733 35.2815 16.8249 35.6321 17.0025C35.9827 17.18 36.5204 17.443 37.1023 17.6294C37.6841 17.8158 38.3098 17.9255 38.82 18.003C39.3301 18.0804 39.7245 18.1256 39.8069 18.1126C39.8894 18.0997 39.6599 18.0288 39.237 17.8524C38.8142 17.676 38.1977 17.3942 37.6565 17.0937C37.1152 16.7931 36.6491 16.4739 36.3082 16.1855C35.9673 15.8972 35.7518 15.6397 35.7981 15.6627C35.8445 15.6856 36.1529 15.9891 36.6263 16.286C37.0997 16.583 37.7379 16.8734 38.3224 17.1122C38.9069 17.351 39.4376 17.5382 39.5667 17.5188C39.6958 17.4994 39.4232 17.2736 39.0952 16.984C38.7673 16.6945 38.3837 16.3412 38.0199 16.0943C37.656 15.8473 37.3119 15.7064 36.9263 15.457C36.5407 15.2076 36.1138 14.8496 36.1262 14.8422C36.1387 14.8349 36.5907 15.1782 36.981 15.4129C37.3713 15.6476 37.6998 15.7737 38.0386 15.956C38.3773 16.1384 38.726 16.3771 39.1365 16.5748C39.547 16.7725 40.0191 16.9291 40.5594 17.0535C41.0997 17.1778 41.708 17.2698 41.8172 17.2318C41.9263 17.1939 41.5362 17.026 41.1424 16.8475C40.7486 16.6691 40.3511 16.4801 40.0156 16.2471C39.6801 16.014 39.4066 15.7369 38.9322 15.3951C38.4577 15.0532 37.7822 14.6465 37.319 14.3206C36.8558 13.9946 36.6048 13.7494 36.6118 13.7343C36.6188 13.7191 36.8838 13.9342 37.1503 14.1304C37.4167 14.3265 37.6844 14.5036 38.0898 14.7414C38.4952 14.9792 39.0381 15.2776 39.8188 15.643C40.5995 16.0085 41.6178 16.4409 41.9871 16.5474C42.3565 16.6539 42.0768 16.4345 41.7219 16.0892C41.3669 15.7439 40.9365 15.2726 40.205 14.6804C39.4735 14.0882 38.4407 13.375 37.9387 13.0216C37.4367 12.6682 37.4653 12.6746 37.6088 12.7634C37.7523 12.8522 38.0104 13.0232 38.5089 13.3524C39.0075 13.6817 39.746 14.1689 40.2875 14.5158C40.829 14.8628 41.1731 15.0693 41.729 15.2839C42.2849 15.4986 43.0522 15.7212 43.6475 15.8616C44.2427 16.002 44.6658 16.0601 44.9921 16.1375C45.3185 16.215 45.548 16.3118 45.5731 16.2957C45.5981 16.2795 45.4189 16.1504 45.089 15.8923C44.7592 15.6342 44.2786 15.2468 43.8268 14.9499C43.375 14.653 42.9518 14.4465 42.5717 14.2787C42.1916 14.1108 41.8545 13.9817 41.7613 13.9301C41.668 13.8784 41.8186 13.9043 41.9998 13.9559C42.1809 14.0076 42.3924 14.085 42.6811 14.1673C42.9698 14.2496 43.3355 14.3367 43.7766 14.3835C44.2177 14.4303 44.734 14.4368 45.3508 14.4271C45.9676 14.4174 46.6847 14.3916 46.9339 14.3642C47.1831 14.3367 46.9644 14.3077 46.6596 14.248C46.3548 14.1883 45.9639 14.0979 45.5247 13.9075C45.0854 13.7171 44.5977 13.4266 44.2158 13.2152C43.8339 13.0039 43.5578 12.8715 43.0809 12.7134C42.6041 12.5553 41.9262 12.3713 41.3005 12.1518C40.6747 11.9324 40.101 11.6774 39.8294 11.5548C39.5577 11.4322 39.5882 11.4418 39.7513 11.5088C39.9145 11.5757 40.2103 11.7 40.5896 11.8355C40.9689 11.9711 41.4314 12.118 41.8527 12.2349C42.2741 12.3519 42.6541 12.439 42.9733 12.5262C43.2924 12.6133 43.5506 12.7005 43.6277 12.6924C43.7048 12.6843 43.6009 12.581 43.384 12.4229C43.1671 12.2649 42.837 12.0518 42.7474 11.9614C42.6577 11.8711 42.8083 11.9034 43.0271 12.0309C43.2459 12.1584 43.5328 12.381 43.782 12.5165C44.0312 12.6521 44.2427 12.7005 44.6462 12.6908C45.0497 12.6811 45.6448 12.6134 46.267 12.5263C46.8891 12.4391 47.5381 12.3326 47.7999 12.2793C48.0616 12.2261 47.9362 12.2261 47.5992 12.2373C47.2622 12.2486 46.7134 12.2713 46.5054 12.2664C46.2974 12.2616 46.4301 12.2293 46.7278 12.2002C47.0254 12.1712 47.4879 12.1454 47.6582 12.1115C47.8286 12.0776 47.7067 12.0357 47.4342 12.0099C47.1618 11.984 46.7385 11.9744 46.3279 11.9163C45.9173 11.8582 45.5192 11.7516 45.1804 11.6371C44.8415 11.5225 44.5618 11.3998 44.0688 11.2756C43.5758 11.1514 42.8693 11.0255 42.1145 10.8513C41.3597 10.677 40.5564 10.4543 40.2229 10.3478C39.8894 10.2413 40.0257 10.251 40.3593 10.3252C40.6928 10.3995 41.2233 10.5382 41.8186 10.6673C42.4139 10.7964 43.0737 10.9158 43.7299 11.0061C44.3862 11.0965 45.0388 11.1578 45.5372 11.1691C46.0357 11.1804 46.3799 11.1417 46.7869 11.0675C47.1939 10.9932 47.6636 10.8835 48.1029 10.7222C48.5422 10.5608 48.951 10.3478 49.0747 10.2655C49.1984 10.1832 49.037 10.2316 48.7071 10.2526C48.3773 10.2736 47.8788 10.2671 47.4216 10.2429C46.9644 10.2187 46.5484 10.1767 46.2508 10.1041C45.9532 10.0315 45.7738 9.92822 45.4709 9.925C45.168 9.92177 44.7411 10.0186 44.205 10.0654C43.669 10.1122 43.0235 10.1089 42.3924 10.0557C41.7613 10.0024 41.1445 9.8992 40.8236 9.83141C40.5027 9.76362 40.4776 9.73135 40.5545 9.73618C40.6315 9.74101 40.811 9.78302 41.2181 9.83305C41.6252 9.88309 42.2597 9.94118 42.8908 9.95409C43.522 9.967 44.1495 9.93472 44.6659 9.87824C45.1823 9.82176 45.5874 9.74106 46.0429 9.61035C46.4983 9.47964 47.0038 9.2989 47.5256 9.07621C48.0473 8.85352 48.5852 8.58891 48.9958 8.29199C49.4064 7.99507 49.6897 7.66587 49.7596 7.5513C49.8295 7.43674 49.6861 7.53685 49.4728 7.65625C49.2594 7.77566 48.9761 7.91442 48.6337 8.01931C48.2912 8.12419 47.8896 8.1952 47.5776 8.25974C47.2656 8.32429 47.0433 8.38239 47.0146 8.36949C46.9859 8.35658 47.1509 8.27264 47.2889 8.20648C47.427 8.14032 47.5382 8.09194 47.4969 8.08065C47.4556 8.06935 47.262 8.09514 46.9698 8.11611C46.6776 8.13708 46.2867 8.15324 45.86 8.18067C45.4333 8.2081 44.9706 8.24681 44.4632 8.30328C43.9558 8.35976 43.4036 8.43402 42.9303 8.47759C42.457 8.52115 42.0625 8.53402 41.8742 8.52756C41.686 8.5211 41.7039 8.49529 41.8813 8.47916C42.0587 8.46303 42.396 8.45659 42.8353 8.41625C43.2746 8.3759 43.816 8.3017 44.2965 8.23715C44.777 8.1726 45.1966 8.11774 45.5623 8.07579C45.9281 8.03383 46.2401 8.00478 46.665 7.85308C47.09 7.70139 47.6278 7.42706 48.033 7.1495C48.4382 6.87195 48.7108 6.59122 48.9815 6.19748C49.2523 5.80375 49.5211 5.29704 49.704 4.83715C49.8869 4.37726 49.9838 3.96415 49.9981 3.82215C50.0124 3.68015 49.9443 3.80929 49.8368 3.99487C49.7292 4.18046 49.5821 4.42245 49.3203 4.66935C49.0585 4.91626 48.6821 5.168 48.0958 5.50041C47.5095 5.83282 46.7134 6.24591 46.0518 6.53636C45.3902 6.82682 44.8631 6.99462 44.3037 7.16566C43.7443 7.3367 43.1526 7.51097 42.7814 7.59649C42.4103 7.68201 42.2597 7.67883 42.24 7.65947C42.2202 7.64012 42.3314 7.60463 42.6847 7.50941C43.0379 7.41419 43.6331 7.2593 44.3414 6.98013C45.0496 6.70096 45.8707 6.29751 46.4749 5.94089C47.0792 5.58427 47.4664 5.27448 47.5794 5.13893C47.6923 5.00339 47.5309 5.04213 47.3463 5.07601C47.1616 5.1099 46.9537 5.13895 46.9142 5.11798C46.8748 5.09701 47.0039 5.02599 47.2244 4.95176C47.445 4.87753 47.7569 4.80007 47.9201 4.72098C48.0832 4.64188 48.0976 4.56122 48.2159 4.27892C48.3342 3.99662 48.5565 3.51233 48.7573 3.13959C48.9582 2.76684 49.1375 2.50546 49.3025 2.3199C49.4674 2.13434 49.618 2.02458 49.6054 2.00361C49.6039 2.00098 49.5997 1.99973 49.5929 2.00005V2.00004ZM7.53668 5.10264C7.50676 5.09912 7.56106 5.21952 7.62371 5.37293C7.70081 5.56174 7.79042 5.80048 8.00739 6.03125C8.22436 6.26203 8.56863 6.48474 8.96129 6.6687C9.35395 6.85265 9.795 6.99784 10.0747 7.08659C10.3544 7.17534 10.4727 7.20764 10.5157 7.23022C10.5588 7.2528 10.5265 7.2657 10.2859 7.20591C10.0453 7.14612 9.59774 7.01401 9.18356 6.86717C8.76937 6.72032 8.38935 6.55893 8.06482 6.41854C7.7403 6.27815 7.47134 6.15878 7.37093 6.14264C7.27052 6.1265 7.33867 6.21364 7.44266 6.37178C7.54666 6.52992 7.68644 6.75902 7.99127 6.96397C8.2961 7.16892 8.76582 7.34962 9.25529 7.45128C9.74477 7.55294 10.254 7.57552 10.4782 7.59649C10.7023 7.61745 10.6413 7.63685 10.408 7.63523C10.1748 7.63362 9.76988 7.61103 9.4005 7.56746C9.03115 7.52389 8.69771 7.45935 8.44669 7.41739C8.19567 7.37543 8.02714 7.3561 7.99127 7.38193C7.95541 7.40775 8.05224 7.47872 8.24587 7.60942C8.4395 7.74013 8.72998 7.93054 9.07782 8.04511C9.42566 8.15968 9.83086 8.19841 10.2199 8.20648C10.609 8.21454 10.9819 8.19198 11.1594 8.19196C11.3369 8.19194 11.319 8.21453 11.0802 8.23393C10.8413 8.25333 10.3831 8.26939 9.92408 8.2581C9.46507 8.2468 9.00614 8.20811 8.80352 8.23393C8.6009 8.25974 8.65466 8.35007 8.79986 8.46143C8.94511 8.57279 9.18181 8.70511 9.48303 8.77772C9.78425 8.85033 10.15 8.86327 10.4781 8.85035C10.8062 8.83744 11.0967 8.79869 11.328 8.74705C11.5593 8.69541 11.7314 8.63083 11.821 8.61307C11.9106 8.59531 11.9178 8.6244 11.8119 8.66962C11.7061 8.71483 11.4875 8.77608 11.1917 8.82934C10.8958 8.8826 10.5229 8.92776 10.1285 8.96811C9.734 9.00845 9.31807 9.04393 9.22843 9.1101C9.13878 9.17627 9.37543 9.27311 9.65692 9.35218C9.93841 9.43124 10.2648 9.49253 10.5964 9.49252C10.9281 9.49252 11.2652 9.43126 11.5933 9.32315C11.9214 9.21504 12.2406 9.06011 12.4073 8.99556C12.574 8.93102 12.5884 8.9568 12.5185 9.002C12.4485 9.04719 12.2944 9.11171 12.1115 9.18595C11.9286 9.26019 11.717 9.34409 11.4337 9.41187C11.1504 9.47966 10.7955 9.53126 10.5624 9.62C10.3293 9.70874 10.2181 9.83458 10.2253 9.90076C10.2325 9.96694 10.358 9.97344 10.548 9.98312C10.738 9.9928 10.9927 10.0057 11.2563 9.95731C11.5198 9.90889 11.7923 9.7991 12.0505 9.6571C12.3086 9.51511 12.5526 9.34085 12.6888 9.25373C12.8251 9.16661 12.8538 9.16662 12.8359 9.19239C12.818 9.21816 12.7534 9.26987 12.5668 9.39257C12.3803 9.51527 12.0721 9.70874 11.8157 9.91691C11.5593 10.1251 11.3549 10.3478 11.3244 10.4365C11.294 10.5253 11.4374 10.4801 11.6399 10.4026C11.8425 10.3252 12.1044 10.2154 12.3213 10.0896C12.5382 9.96372 12.7104 9.82169 12.8592 9.69099C13.008 9.5603 13.1335 9.44086 13.2069 9.39407C13.2804 9.34729 13.3019 9.37315 13.2463 9.43447C13.1908 9.49578 13.0582 9.59257 12.9147 9.71523C12.7712 9.83789 12.6171 9.98629 12.4037 10.1428C12.1903 10.2994 11.9178 10.4639 11.8318 10.543C11.7457 10.6221 11.8461 10.6156 12.0254 10.5834C12.2046 10.5511 12.4629 10.493 12.678 10.4043C12.8932 10.3155 13.0653 10.1961 13.2266 10.0541C13.388 9.91213 13.5387 9.74749 13.6086 9.68456C13.6785 9.62162 13.6677 9.66033 13.5995 9.74754C13.5313 9.83475 13.406 9.97017 13.259 10.1025C13.1119 10.2349 12.9434 10.3639 12.9148 10.4381C12.8861 10.5124 12.9972 10.5318 13.1299 10.5156C13.2626 10.4995 13.4168 10.4478 13.5709 10.3317C13.7251 10.2155 13.8793 10.0347 13.9743 9.93465C14.0694 9.83461 14.1053 9.81527 14.0731 9.87488C14.0408 9.93449 13.9403 10.0734 13.8201 10.2025C13.7 10.3316 13.5602 10.451 13.5118 10.5188C13.4633 10.5866 13.5064 10.6027 13.6175 10.5979C13.7286 10.5931 13.908 10.5672 14.0766 10.5027C14.2451 10.4381 14.4029 10.3348 14.5642 10.2429C14.7256 10.1509 14.8906 10.0702 14.9533 10.0492C15.0161 10.0283 14.9766 10.067 14.869 10.1364C14.7613 10.2058 14.5858 10.3058 14.4136 10.4301C14.2415 10.5544 14.073 10.7028 14.0623 10.7738C14.0515 10.8448 14.1985 10.8384 14.3793 10.8064C14.5602 10.7745 14.775 10.7171 14.9825 10.6279C15.1899 10.5387 15.3902 10.4177 15.484 10.3732C15.5779 10.3287 15.5652 10.3607 15.4395 10.4441C15.3139 10.5275 15.0759 10.6619 14.9009 10.7806C14.7259 10.8992 14.6144 11.0019 14.6487 11.0339C14.6829 11.0658 14.8629 11.0271 15.0746 10.9449C15.2863 10.8628 15.5297 10.7372 15.7896 10.6482C16.0495 10.5592 16.3259 10.5067 16.4476 10.4942C16.5693 10.4816 16.5364 10.509 16.3803 10.5627C16.2242 10.6164 15.9456 10.6962 15.905 10.7464C15.8645 10.7966 16.0622 10.8171 16.2511 10.8296C16.44 10.8422 16.62 10.8468 16.8356 10.8285C17.0511 10.8103 17.3021 10.7692 17.3554 10.7749C17.4087 10.7806 17.2641 10.8331 17.0536 10.9141C16.8431 10.9952 16.5668 11.1046 16.5301 11.1731C16.4933 11.2416 16.6961 11.269 16.9242 11.3009C17.1524 11.3329 17.4061 11.3694 17.737 11.366C18.0678 11.3625 18.4761 11.3192 18.6574 11.3135C18.8387 11.3077 18.793 11.3397 18.604 11.3831C18.4149 11.4265 18.0831 11.4812 17.7978 11.5325C17.5125 11.5839 17.2742 11.6318 17.2499 11.679C17.2256 11.7263 17.4153 11.7729 17.6446 11.8123C17.8739 11.8517 18.143 11.884 18.4191 11.8792C18.6952 11.8743 18.9785 11.8323 19.0395 11.8291C19.1004 11.8259 18.939 11.8614 18.7346 11.913C18.5302 11.9647 18.2828 12.0324 18.0425 12.1067C17.8022 12.1809 17.5692 12.2615 17.5082 12.3164C17.4473 12.3713 17.5584 12.4004 17.7574 12.4229C17.9564 12.4455 18.2433 12.4617 18.5176 12.3971C18.792 12.3326 19.0538 12.1873 19.1829 12.134C19.3119 12.0808 19.3083 12.1195 19.1504 12.218C18.9925 12.3166 18.6808 12.4746 18.4334 12.602C18.1859 12.7295 18.0031 12.8263 18.0695 12.857C18.1358 12.8877 18.4513 12.8522 18.627 12.8393C18.8027 12.8264 18.8386 12.836 18.7078 12.9038C18.5771 12.9715 18.2792 13.0975 18.2559 13.1636C18.2326 13.2298 18.4836 13.2362 18.7543 13.212C19.025 13.1878 19.3155 13.1329 19.5844 12.9958C19.8533 12.8586 20.1009 12.6391 20.255 12.51C20.4092 12.3809 20.4702 12.3423 20.4397 12.3858C20.4093 12.4293 20.2873 12.5552 20.1241 12.715C19.9609 12.8748 19.7566 13.0684 19.6257 13.1942C19.4948 13.3201 19.4374 13.3782 19.4931 13.3814C19.5487 13.3846 19.7172 13.333 19.9287 13.2556C20.1402 13.1781 20.3949 13.0749 20.567 12.9409C20.7391 12.807 20.8288 12.6423 20.879 12.5778C20.9291 12.5133 20.9399 12.5488 20.8933 12.6618C20.8466 12.7748 20.7427 12.9651 20.5849 13.1942C20.4271 13.4234 20.2156 13.6912 20.1816 13.7864C20.1475 13.8816 20.2909 13.8042 20.4576 13.6993C20.6243 13.5945 20.8144 13.4621 20.9704 13.3121C21.1264 13.162 21.2483 12.9942 21.3236 12.9183C21.3989 12.8425 21.4276 12.8586 21.3954 12.957C21.3631 13.0554 21.2698 13.2361 21.1551 13.3959C21.0629 13.5243 20.9583 13.638 20.9313 13.6932C20.9564 13.6995 20.9811 13.7063 21.0053 13.7141C21.0203 13.7202 21.0195 13.7192 21.0329 13.7239C21.4249 13.8612 21.7046 14.1957 21.9096 14.5154C22.1387 14.8566 22.1623 15.2713 22.4169 15.6014C22.6548 15.9474 22.7827 16.3664 22.6678 16.7691C22.7134 17.038 22.5788 17.2939 22.5145 17.5513C22.5995 17.6676 22.5732 17.8226 22.5312 17.9537C22.2996 18.5668 22.5393 19.227 22.8452 19.7788C22.8736 19.8219 22.902 19.8657 22.9305 19.9093C22.9603 19.9573 22.9824 19.9908 23.0121 20.0339C23.0118 20.0339 23.0117 20.0338 23.0114 20.0338C23.3398 20.5464 23.6373 21.0908 23.6431 21.6938C23.6221 21.9096 23.6957 22.1684 23.5372 22.351C23.4705 22.4526 23.3205 22.3336 23.2873 22.4548C23.2278 22.597 23.0502 22.7922 22.8677 22.6758C22.6989 22.7743 22.5021 22.9376 22.269 22.9462C21.9034 22.8907 21.5065 22.9539 21.1623 22.8017C20.8239 22.6531 20.5411 22.4302 20.3216 22.1631C20.3102 22.1859 20.2869 22.2206 20.2496 22.2662C20.1545 22.3825 19.9718 22.5663 19.7799 22.7341C19.5881 22.9019 19.3873 23.0536 19.2044 23.1827C19.0215 23.3118 18.8566 23.4183 18.7902 23.4909C18.7238 23.5636 18.7561 23.6023 18.8458 23.5862C18.9355 23.57 19.0825 23.499 19.2277 23.4457C19.3729 23.3925 19.5163 23.357 19.5414 23.3731C19.5666 23.3892 19.4733 23.457 19.3316 23.5361C19.19 23.6152 18.9999 23.7055 18.817 23.7766C18.6341 23.8476 18.4585 23.8992 18.3796 23.9686C18.3007 24.038 18.3186 24.125 18.2666 24.2477C18.2146 24.3704 18.0927 24.5284 17.9206 24.6866C17.7484 24.8448 17.5262 25.0029 17.3756 25.1094C17.2249 25.2159 17.146 25.2708 17.2411 25.2804C17.3362 25.2901 17.6051 25.2547 17.9565 25.1595C18.3079 25.0643 18.7418 24.9093 19.1022 24.7367C19.4625 24.564 19.7494 24.3736 20.0273 24.1654C20.3052 23.9573 20.5742 23.7313 20.7929 23.5393C21.0116 23.3473 21.1802 23.1892 21.2662 23.1198C21.3523 23.0504 21.3558 23.0697 21.2984 23.144C21.241 23.2184 21.1229 23.3473 20.9346 23.5167C20.7463 23.6862 20.4881 23.8959 20.3034 24.0783C20.1187 24.2606 20.0076 24.4155 19.9861 24.4866C19.9646 24.5576 20.0327 24.5447 20.1725 24.4769C20.3123 24.4092 20.5239 24.2864 20.6154 24.2541C20.7068 24.2219 20.6782 24.28 20.5813 24.3623C20.4844 24.4446 20.3196 24.5511 20.1421 24.6366C19.9646 24.7222 19.7746 24.7867 19.6795 24.8448C19.5845 24.9028 19.5844 24.9545 19.5629 25.074C19.5414 25.1934 19.4984 25.3805 19.4051 25.5822C19.3119 25.784 19.1685 26.0001 19.0555 26.1389C18.9426 26.2777 18.8601 26.339 18.887 26.36C18.914 26.381 19.0502 26.3617 19.2725 26.3133C19.4947 26.2649 19.8032 26.1874 20.0201 26.1164C20.2371 26.0454 20.3626 25.9808 20.4809 25.8646C20.5992 25.7485 20.7104 25.5805 20.7624 25.5225C20.8144 25.4644 20.8073 25.5161 20.7714 25.5839C20.7355 25.6517 20.671 25.7355 20.6943 25.75C20.7177 25.7645 20.8288 25.7097 20.9561 25.608C21.0834 25.5064 21.2268 25.3579 21.3003 25.1126C21.3738 24.8674 21.3774 24.5253 21.3971 24.3591C21.4169 24.1929 21.4527 24.2025 21.4653 24.3218C21.4778 24.4412 21.467 24.6705 21.4635 24.8206C21.4599 24.9707 21.4635 25.0416 21.4904 25.0416C21.5173 25.0416 21.5675 24.9706 21.6679 24.8254C21.7682 24.6803 21.9189 24.4607 22.0515 24.2445C22.1842 24.0283 22.299 23.8153 22.3564 23.6894C22.4137 23.5635 22.4137 23.5248 22.4782 23.4071C22.5427 23.2894 22.6719 23.0923 22.7544 22.9826C22.8369 22.8729 22.8727 22.8503 22.8477 22.9163C22.8226 22.9824 22.7365 23.1375 22.6666 23.2586C22.5966 23.3796 22.5428 23.4667 22.5536 23.4861C22.5644 23.5054 22.6396 23.457 22.7579 23.3748C22.8762 23.2925 23.0377 23.1763 23.1076 23.1375C23.1775 23.0988 23.156 23.1375 23.0375 23.2425C22.9191 23.3475 22.7042 23.5184 22.5572 23.6523C22.4101 23.7862 22.3313 23.883 22.2362 24.0444C22.1412 24.2059 22.03 24.4317 22.0175 24.5027C22.0049 24.5736 22.091 24.4897 22.2792 24.3252C22.4674 24.1607 22.758 23.9153 22.8978 23.8185C23.0376 23.7216 23.0269 23.7733 22.9372 23.8669C22.8475 23.9606 22.6791 24.096 22.507 24.2655C22.3348 24.435 22.1592 24.6382 22.0444 24.7818C21.9296 24.9255 21.8759 25.0093 21.8274 25.1901C21.779 25.3709 21.736 25.6483 21.7486 25.7597C21.7611 25.871 21.8292 25.8162 21.9368 25.7275C22.0443 25.6388 22.1915 25.5161 22.2703 25.4693C22.3492 25.4225 22.3599 25.4515 22.3061 25.5338C22.2523 25.6162 22.1341 25.7516 22.0318 25.8678C21.9296 25.984 21.8436 26.0808 21.8149 26.2503C21.7862 26.4198 21.8148 26.6617 21.8866 26.9748C21.9583 27.2879 22.073 27.6719 22.1376 27.8349C22.2021 27.9978 22.2165 27.9397 22.2631 27.8349C22.3097 27.73 22.3887 27.5783 22.5034 27.4379C22.6181 27.2976 22.7688 27.1684 22.8996 27.0716C23.0305 26.9748 23.1417 26.9103 23.2295 26.8038C23.3174 26.6973 23.3819 26.5488 23.4124 26.4036C23.4429 26.2583 23.4393 26.1163 23.407 25.9179C23.3747 25.7194 23.3138 25.4644 23.2654 25.2821C23.217 25.0998 23.1811 24.99 23.199 24.9965C23.217 25.0029 23.2887 25.1256 23.3496 25.2821C23.4106 25.4386 23.4608 25.629 23.4966 25.8146C23.5325 26.0002 23.554 26.1809 23.5881 26.2486C23.6222 26.3164 23.6688 26.2712 23.71 26.1277C23.7512 25.9842 23.7871 25.7419 23.7971 25.5517C23.8071 25.3614 23.7913 25.2229 23.7492 25.0886C23.707 24.9544 23.6385 24.8243 23.5549 24.6908C23.4712 24.5573 23.3723 24.4204 23.347 24.3702C23.3216 24.32 23.3698 24.3565 23.4395 24.4318C23.5092 24.5071 23.6005 24.6212 23.6665 24.717C23.7324 24.8128 23.773 24.8904 23.8034 24.8824C23.8338 24.8744 23.8541 24.7809 23.8706 24.652C23.887 24.5231 23.8997 24.3587 23.9099 24.2138C23.92 24.0689 23.9276 23.9434 23.8909 23.8111C23.8541 23.6787 23.7729 23.5395 23.7095 23.4186C23.6461 23.2976 23.6005 23.1949 23.6068 23.1698C23.6132 23.1447 23.6715 23.1972 23.7412 23.2827C23.811 23.3683 23.8921 23.487 23.9428 23.5132C23.9936 23.5395 24.0139 23.4733 24.0316 23.3478C24.0493 23.2224 24.0645 23.0374 24.0759 22.8937C24.0874 22.7499 24.0949 22.6472 24.067 22.5548C24.0392 22.4624 23.9758 22.3802 23.9809 22.3677C23.9859 22.3551 24.0595 22.4121 24.0925 22.4155C24.1254 22.419 24.1177 22.3688 24.0861 22.3106C24.0544 22.2524 23.9986 22.1863 24.0024 22.176C24.0062 22.1657 24.0696 22.2114 24.1127 22.1919C24.1558 22.1725 24.1787 22.0881 24.199 21.99C24.2192 21.8919 24.2369 21.78 24.2724 21.6602C24.3079 21.5404 24.3612 21.4126 24.3967 21.3601C24.4322 21.3077 24.4499 21.3305 24.4373 21.4012C24.4246 21.472 24.3815 21.5906 24.3523 21.6842C24.3231 21.7777 24.308 21.8462 24.3486 21.8519C24.3892 21.8576 24.4855 21.8006 24.5032 21.8108C24.521 21.8211 24.4601 21.8986 24.3916 21.9808C24.3231 22.063 24.2471 22.1497 24.218 22.2319C24.1888 22.314 24.2065 22.3916 24.2598 22.3847C24.3131 22.3779 24.4018 22.2866 24.4804 22.2067C24.559 22.1269 24.6275 22.0584 24.6477 22.0527C24.668 22.047 24.6402 22.1041 24.559 22.2C24.4778 22.2959 24.3435 22.4304 24.2611 22.5525C24.1787 22.6746 24.1482 22.7841 24.1609 22.8149C24.1736 22.8457 24.2294 22.7978 24.3092 22.7419C24.3891 22.686 24.4931 22.6221 24.5083 22.6324C24.5235 22.6426 24.45 22.7271 24.3739 22.8149C24.2978 22.9028 24.2193 22.994 24.1571 23.1995C24.095 23.4049 24.0493 23.7243 24.0227 23.9582C23.9961 24.1922 23.9885 24.3405 24.0075 24.3576C24.0265 24.3747 24.0721 24.2606 24.1888 24.102C24.3054 23.9435 24.4931 23.7403 24.5603 23.6798C24.6275 23.6193 24.5742 23.7015 24.4829 23.8384C24.3916 23.9754 24.2623 24.167 24.1672 24.3439C24.0721 24.5208 24.0113 24.6827 23.9758 24.8459C23.9403 25.0091 23.9301 25.1734 23.9225 25.4176C23.9149 25.6619 23.9099 25.9858 23.9251 26.1136C23.9403 26.2414 23.9758 26.1729 24.0366 26.0441C24.0974 25.9152 24.1837 25.7257 24.2674 25.5945C24.3511 25.4633 24.4322 25.3902 24.45 25.3947C24.4677 25.3992 24.4221 25.4814 24.3536 25.6173C24.2851 25.7531 24.1939 25.9424 24.1406 26.141C24.0873 26.3396 24.0722 26.5472 24.0772 26.6762C24.0823 26.8051 24.1077 26.8553 24.2002 27.0059C24.2928 27.1566 24.4525 27.4075 24.5869 27.6437C24.7213 27.8799 24.8303 28.1013 24.896 28.2014C24.9617 28.3015 25.0384 28.3015 25.1041 28.2014C25.1698 28.1013 25.2788 27.8799 25.4131 27.6437C25.5475 27.4075 25.7072 27.1566 25.7998 27.0059C25.8924 26.8553 25.9177 26.8051 25.9228 26.6762C25.9279 26.5472 25.9127 26.3396 25.8594 26.141C25.8062 25.9424 25.7149 25.7531 25.6464 25.6173C25.578 25.4814 25.5323 25.3992 25.5501 25.3947C25.5678 25.3902 25.649 25.4633 25.7326 25.5945C25.8163 25.7257 25.9026 25.9152 25.9634 26.0441C26.0243 26.1729 26.0597 26.2414 26.0749 26.1136C26.0902 25.9858 26.0851 25.6619 26.0775 25.4176C26.0699 25.1734 26.0598 25.0091 26.0243 24.8459C25.9888 24.6827 25.9279 24.5208 25.8328 24.3439C25.7377 24.167 25.6084 23.9754 25.5171 23.8384C25.4258 23.7015 25.3726 23.6193 25.4398 23.6798C25.507 23.7403 25.6947 23.9435 25.8113 24.102C25.9279 24.2606 25.9735 24.3747 25.9926 24.3576C26.0116 24.3405 26.004 24.1922 25.9773 23.9582C25.9507 23.7243 25.9051 23.4049 25.8429 23.1995C25.7808 22.994 25.7022 22.9028 25.6261 22.8149C25.5501 22.7271 25.4765 22.6426 25.4917 22.6324C25.5069 22.6221 25.611 22.686 25.6908 22.7419C25.7706 22.7978 25.8264 22.8457 25.8391 22.8149C25.8518 22.7841 25.8214 22.6746 25.7389 22.5525C25.6565 22.4304 25.5222 22.2959 25.4411 22.2C25.3599 22.1041 25.332 22.047 25.3523 22.0527C25.3726 22.0584 25.4411 22.1269 25.5196 22.2067C25.5982 22.2866 25.687 22.3779 25.7402 22.3847C25.7935 22.3916 25.8113 22.314 25.7821 22.2319C25.7529 22.1497 25.6769 22.063 25.6084 21.9808C25.5399 21.8986 25.4791 21.8211 25.4968 21.8108C25.5146 21.8006 25.6109 21.8576 25.6515 21.8519C25.6921 21.8462 25.6769 21.7777 25.6477 21.6842C25.6186 21.5906 25.5755 21.472 25.5628 21.4012C25.5501 21.3305 25.5678 21.3077 25.6033 21.3601C25.6388 21.4126 25.6921 21.5404 25.7276 21.6602C25.7631 21.78 25.7808 21.8919 25.8011 21.99C25.8214 22.0881 25.8443 22.1725 25.8874 22.1919C25.9305 22.2114 25.9939 22.1657 25.9977 22.176C26.0015 22.1863 25.9457 22.2524 25.914 22.3106C25.8823 22.3688 25.8746 22.4189 25.9076 22.4155C25.9406 22.4121 26.0141 22.3551 26.0192 22.3677C26.0243 22.3802 25.9609 22.4624 25.933 22.5548C25.9051 22.6472 25.9127 22.7499 25.9241 22.8937C25.9355 23.0374 25.9507 23.2224 25.9684 23.3478C25.9862 23.4733 26.0065 23.5395 26.0572 23.5132C26.1079 23.487 26.1891 23.3683 26.2588 23.2827C26.3285 23.1972 26.3869 23.1447 26.3932 23.1698C26.3996 23.1949 26.3539 23.2976 26.2905 23.4186C26.2271 23.5395 26.1459 23.6787 26.1092 23.8111C26.0724 23.9434 26.08 24.0689 26.0902 24.2138C26.1003 24.3587 26.113 24.5231 26.1295 24.652C26.146 24.7809 26.1662 24.8744 26.1967 24.8824C26.2271 24.8904 26.2676 24.8128 26.3336 24.717C26.3995 24.6212 26.4908 24.5071 26.5606 24.4318C26.6303 24.3565 26.6784 24.32 26.6531 24.3702C26.6277 24.4204 26.5288 24.5573 26.4452 24.6908C26.3615 24.8243 26.293 24.9544 26.2509 25.0886C26.2088 25.2229 26.193 25.3614 26.203 25.5517C26.213 25.7419 26.2489 25.9842 26.2901 26.1277C26.3313 26.2712 26.3778 26.3164 26.4119 26.2486C26.446 26.1809 26.4676 26.0002 26.5034 25.8146C26.5393 25.629 26.5894 25.4386 26.6504 25.2821C26.7114 25.1256 26.7831 25.0029 26.801 24.9965C26.8189 24.99 26.7831 25.0998 26.7347 25.2821C26.6863 25.4644 26.6253 25.7194 26.593 25.9179C26.5608 26.1163 26.5572 26.2583 26.5876 26.4036C26.6181 26.5488 26.6827 26.6973 26.7705 26.8038C26.8583 26.9103 26.9695 26.9748 27.1004 27.0716C27.2313 27.1684 27.3819 27.2976 27.4967 27.4379C27.6114 27.5783 27.6904 27.73 27.737 27.8349C27.7836 27.9397 27.7979 27.9978 27.8625 27.8349C27.927 27.6719 28.0418 27.2879 28.1135 26.9748C28.1852 26.6617 28.2138 26.4198 28.1851 26.2503C28.1564 26.0808 28.0704 25.984 27.9682 25.8678C27.866 25.7516 27.7478 25.6162 27.694 25.5338C27.6402 25.4515 27.6509 25.4225 27.7297 25.4693C27.8086 25.5161 27.9558 25.6388 28.0633 25.7275C28.1708 25.8162 28.2389 25.871 28.2515 25.7597C28.2641 25.6483 28.221 25.3709 28.1726 25.1901C28.1242 25.0093 28.0704 24.9255 27.9557 24.7818C27.8409 24.6382 27.6652 24.435 27.4931 24.2655C27.3209 24.096 27.1525 23.9606 27.0628 23.8669C26.9731 23.7733 26.9624 23.7216 27.1022 23.8185C27.2421 23.9153 27.5326 24.1607 27.7208 24.3252C27.909 24.4897 27.9951 24.5736 27.9826 24.5027C27.97 24.4317 27.8589 24.2059 27.7638 24.0444C27.6688 23.883 27.5899 23.7862 27.4429 23.6523C27.2958 23.5184 27.0809 23.3475 26.9625 23.2425C26.8441 23.1375 26.8225 23.0988 26.8924 23.1375C26.9624 23.1763 27.1238 23.2925 27.2421 23.3748C27.3604 23.457 27.4357 23.5054 27.4465 23.4861C27.4572 23.4667 27.4034 23.3796 27.3335 23.2586C27.2636 23.1375 27.1774 22.9824 27.1524 22.9163C27.1273 22.8503 27.1632 22.8729 27.2456 22.9826C27.3281 23.0923 27.4573 23.2894 27.5218 23.4071C27.5863 23.5248 27.5863 23.5635 27.6437 23.6894C27.7011 23.8153 27.8158 24.0283 27.9485 24.2445C28.0812 24.4607 28.2318 24.6803 28.3322 24.8254C28.4326 24.9706 28.4827 25.0416 28.5097 25.0416C28.5366 25.0416 28.5402 24.9707 28.5366 24.8206C28.533 24.6705 28.5222 24.4412 28.5348 24.3218C28.5473 24.2025 28.5832 24.1929 28.6029 24.3591C28.6226 24.5253 28.6263 24.8674 28.6998 25.1126C28.7732 25.3579 28.9167 25.5064 29.044 25.608C29.1712 25.7097 29.2824 25.7645 29.3057 25.75C29.3291 25.7355 29.2645 25.6517 29.2287 25.5839C29.1928 25.5161 29.1856 25.4644 29.2376 25.5225C29.2896 25.5805 29.4009 25.7485 29.5192 25.8646C29.6375 25.9808 29.763 26.0454 29.9799 26.1164C30.1968 26.1874 30.5053 26.2649 30.7276 26.3133C30.9499 26.3617 31.0861 26.381 31.113 26.36C31.1399 26.339 31.0575 26.2777 30.9445 26.1389C30.8316 26.0001 30.6882 25.784 30.5949 25.5822C30.5017 25.3805 30.4587 25.1934 30.4371 25.074C30.4156 24.9545 30.4156 24.9028 30.3205 24.8448C30.2255 24.7867 30.0355 24.7222 29.858 24.6366C29.6804 24.5511 29.5156 24.4446 29.4187 24.3623C29.3219 24.28 29.2932 24.2219 29.3847 24.2541C29.4761 24.2864 29.6878 24.4092 29.8275 24.4769C29.9673 24.5447 30.0355 24.5576 30.014 24.4866C29.9925 24.4155 29.8813 24.2606 29.6966 24.0783C29.5119 23.8959 29.2538 23.6862 29.0655 23.5167C28.8772 23.3473 28.7591 23.2184 28.7017 23.144C28.6442 23.0697 28.6478 23.0504 28.7338 23.1198C28.8199 23.1892 28.9884 23.3473 29.2071 23.5393C29.4259 23.7313 29.6949 23.9573 29.9728 24.1654C30.2506 24.3736 30.5375 24.564 30.8979 24.7367C31.2583 24.9093 31.6922 25.0643 32.0436 25.1595C32.3949 25.2547 32.6638 25.2901 32.7589 25.2804C32.854 25.2708 32.7751 25.2159 32.6245 25.1094C32.4739 25.0029 32.2516 24.8448 32.0795 24.6866C31.9073 24.5284 31.7854 24.3704 31.7334 24.2477C31.6814 24.125 31.6994 24.038 31.6205 23.9686C31.5416 23.8992 31.3659 23.8476 31.183 23.7766C31.0001 23.7055 30.8101 23.6152 30.6684 23.5361C30.5267 23.457 30.4335 23.3892 30.4586 23.3731C30.4837 23.357 30.6272 23.3925 30.7724 23.4457C30.9176 23.499 31.0646 23.57 31.1542 23.5862C31.2439 23.6023 31.2762 23.5636 31.2099 23.4909C31.1435 23.4183 30.9786 23.3118 30.7957 23.1827C30.6128 23.0536 30.412 22.9019 30.2201 22.7341C30.0283 22.5663 29.8456 22.3825 29.7505 22.2662C29.7132 22.2206 29.6899 22.1859 29.6784 22.1631C29.459 22.4302 29.1762 22.6531 28.8377 22.8017C28.4935 22.9539 28.0966 22.8907 27.731 22.9462C27.4979 22.9376 27.3011 22.7743 27.1324 22.6758C26.9498 22.7922 26.7723 22.597 26.7128 22.4548C26.6796 22.3336 26.5296 22.4526 26.4629 22.351C26.3044 22.1684 26.3779 21.9096 26.3569 21.6938C26.3627 21.0908 26.6602 20.5464 26.9886 20.0338C26.9884 20.0338 26.9882 20.0339 26.988 20.0339C27.0177 19.9908 27.0397 19.9573 27.0695 19.9093C27.098 19.8657 27.1264 19.8219 27.1549 19.7788C27.4608 19.227 27.7004 18.5668 27.4688 17.9537C27.4268 17.8226 27.4006 17.6676 27.4855 17.5513C27.4213 17.2939 27.2866 17.038 27.3323 16.7691C27.2173 16.3664 27.3452 15.9474 27.5831 15.6014C27.8378 15.2713 27.8613 14.8566 28.0904 14.5154C28.2954 14.1957 28.5752 13.8612 28.9671 13.7239C28.981 13.7187 28.9827 13.7182 28.9947 13.7141C29.0189 13.7063 29.0437 13.6995 29.0688 13.6932C29.0418 13.638 28.9371 13.5243 28.845 13.3959C28.7302 13.2361 28.6369 13.0554 28.6047 12.957C28.5724 12.8586 28.6012 12.8425 28.6765 12.9183C28.7518 12.9942 28.8737 13.162 29.0297 13.3121C29.1856 13.4621 29.3757 13.5945 29.5424 13.6993C29.7091 13.8042 29.8525 13.8816 29.8185 13.7864C29.7844 13.6912 29.573 13.4234 29.4152 13.1942C29.2574 12.9651 29.1534 12.7748 29.1068 12.6618C29.0602 12.5488 29.0709 12.5133 29.1211 12.5778C29.1713 12.6423 29.2609 12.807 29.433 12.9409C29.6051 13.0749 29.8598 13.1781 30.0713 13.2556C30.2829 13.333 30.4513 13.3846 30.507 13.3814C30.5626 13.3782 30.5052 13.3201 30.3743 13.1942C30.2434 13.0684 30.0391 12.8748 29.8759 12.715C29.7127 12.5552 29.5907 12.4293 29.5603 12.3858C29.5299 12.3423 29.5908 12.3809 29.745 12.51C29.8992 12.6391 30.1467 12.8586 30.4156 12.9958C30.6845 13.1329 30.975 13.1878 31.2457 13.212C31.5165 13.2362 31.7674 13.2298 31.7441 13.1636C31.7209 13.0975 31.423 12.9715 31.2922 12.9038C31.1615 12.836 31.1973 12.8264 31.373 12.8393C31.5487 12.8522 31.8642 12.8877 31.9306 12.857C31.997 12.8263 31.8141 12.7295 31.5667 12.602C31.3192 12.4746 31.0076 12.3166 30.8497 12.218C30.6918 12.1195 30.6881 12.0808 30.8172 12.134C30.9463 12.1873 31.2081 12.3326 31.4824 12.3971C31.7567 12.4617 32.0436 12.4455 32.2426 12.4229C32.4416 12.4004 32.5528 12.3713 32.4918 12.3164C32.4309 12.2615 32.1978 12.1809 31.9575 12.1067C31.7172 12.0324 31.4699 11.9647 31.2655 11.913C31.061 11.8614 30.8996 11.8259 30.9606 11.8291C31.0215 11.8323 31.3049 11.8743 31.581 11.8792C31.8571 11.884 32.1261 11.8517 32.3554 11.8123C32.5848 11.7729 32.7744 11.7263 32.7502 11.679C32.7258 11.6318 32.4875 11.5839 32.2022 11.5325C31.917 11.4812 31.5851 11.4265 31.3961 11.3831C31.207 11.3397 31.1614 11.3077 31.3427 11.3135C31.524 11.3192 31.9322 11.3625 32.2631 11.366C32.594 11.3694 32.8476 11.3329 33.0758 11.3009C33.304 11.269 33.5067 11.2416 33.47 11.1731C33.4332 11.1046 33.157 10.9952 32.9465 10.9141C32.736 10.8331 32.5914 10.7806 32.6446 10.7749C32.6979 10.7692 32.949 10.8103 33.1645 10.8285C33.38 10.8468 33.56 10.8422 33.7489 10.8296C33.9378 10.8171 34.1356 10.7966 34.095 10.7464C34.0545 10.6962 33.7759 10.6164 33.6198 10.5627C33.4636 10.509 33.4307 10.4816 33.5524 10.4942C33.6741 10.5067 33.9506 10.5592 34.2104 10.6482C34.4703 10.7372 34.7138 10.8628 34.9255 10.9449C35.1372 11.0271 35.3171 11.0658 35.3514 11.0339C35.3856 11.0019 35.2741 10.8992 35.0991 10.7806C34.9242 10.6619 34.6862 10.5275 34.5605 10.4441C34.4348 10.3607 34.4222 10.3287 34.516 10.3732C34.6098 10.4177 34.8101 10.5387 35.0176 10.6279C35.2251 10.7171 35.4399 10.7745 35.6207 10.8064C35.8016 10.8384 35.9485 10.8448 35.9378 10.7738C35.927 10.7028 35.7586 10.5544 35.5864 10.4301C35.4143 10.3058 35.2387 10.2058 35.1311 10.1364C35.0234 10.067 34.984 10.0283 35.0467 10.0492C35.1095 10.0702 35.2745 10.1509 35.4358 10.2429C35.5972 10.3348 35.755 10.4381 35.9235 10.5027C36.092 10.5672 36.2714 10.5931 36.3826 10.5979C36.4937 10.6027 36.5367 10.5866 36.4883 10.5188C36.4399 10.451 36.3001 10.3316 36.1799 10.2025C36.0598 10.0734 35.9592 9.93449 35.927 9.87488C35.8948 9.81527 35.9307 9.83461 36.0257 9.93465C36.1207 10.0347 36.2749 10.2155 36.4291 10.3317C36.5833 10.4478 36.7375 10.4995 36.8702 10.5156C37.0028 10.5318 37.114 10.5124 37.0853 10.4381C37.0566 10.3639 36.8881 10.2349 36.7411 10.1025C36.594 9.97017 36.4687 9.83475 36.4005 9.74754C36.3323 9.66033 36.3215 9.62162 36.3915 9.68456C36.4614 9.74749 36.6121 9.91213 36.7734 10.0541C36.9347 10.1961 37.1069 10.3155 37.322 10.4043C37.5371 10.493 37.7954 10.5511 37.9747 10.5834C38.1539 10.6156 38.2543 10.6221 38.1683 10.543C38.0822 10.4639 37.8098 10.2994 37.5964 10.1428C37.383 9.98629 37.2288 9.83789 37.0854 9.71523C36.9419 9.59257 36.8093 9.49578 36.7537 9.43447C36.6981 9.37315 36.7196 9.34729 36.7931 9.39407C36.8666 9.44086 36.9921 9.5603 37.1409 9.69099C37.2897 9.82169 37.4618 9.96372 37.6788 10.0896C37.8957 10.2154 38.1575 10.3252 38.3601 10.4026C38.5627 10.4801 38.7061 10.5253 38.6756 10.4365C38.6452 10.3478 38.4408 10.1251 38.1844 9.91691C37.928 9.70874 37.6198 9.51527 37.4332 9.39257C37.2467 9.26987 37.182 9.21816 37.1642 9.19239C37.1463 9.16662 37.1749 9.16661 37.3112 9.25373C37.4475 9.34085 37.6914 9.51511 37.9496 9.6571C38.2077 9.7991 38.4802 9.90889 38.7438 9.95731C39.0073 10.0057 39.262 9.9928 39.4521 9.98312C39.6421 9.97344 39.7676 9.96694 39.7747 9.90076C39.7819 9.83458 39.6708 9.70874 39.4377 9.62C39.2046 9.53126 38.8496 9.47966 38.5663 9.41187C38.283 9.34409 38.0715 9.26019 37.8886 9.18595C37.7056 9.11171 37.5515 9.04719 37.4816 9.002C37.4117 8.9568 37.426 8.93102 37.5927 8.99556C37.7594 9.06011 38.0786 9.21504 38.4067 9.32315C38.7348 9.43126 39.0719 9.49252 39.4036 9.49252C39.7353 9.49253 40.0616 9.43124 40.3431 9.35218C40.6246 9.27311 40.8613 9.17627 40.7716 9.1101C40.682 9.04393 40.266 9.00845 39.8716 8.96811C39.4771 8.92776 39.1043 8.8826 38.8084 8.82934C38.5125 8.77608 38.294 8.71483 38.1881 8.66962C38.0823 8.6244 38.0894 8.59531 38.1791 8.61307C38.2687 8.63083 38.4408 8.69541 38.6721 8.74705C38.9033 8.79869 39.1939 8.83744 39.522 8.85035C39.8501 8.86327 40.2158 8.85033 40.517 8.77772C40.8182 8.70511 41.0549 8.57279 41.2002 8.46143C41.3454 8.35007 41.3991 8.25974 41.1965 8.23393C40.9938 8.20811 40.5349 8.2468 40.0759 8.2581C39.6169 8.26939 39.1587 8.25333 38.9198 8.23393C38.681 8.21453 38.6631 8.19194 38.8406 8.19196C39.0181 8.19198 39.391 8.21454 39.7801 8.20648C40.1691 8.19841 40.5743 8.15968 40.9222 8.04511C41.27 7.93054 41.5605 7.74013 41.7541 7.60942C41.9477 7.47872 42.0446 7.40775 42.0087 7.38193C41.9729 7.3561 41.8043 7.37543 41.5533 7.41739C41.3023 7.45935 40.9688 7.52389 40.5995 7.56746C40.2301 7.61103 39.8252 7.63362 39.592 7.63523C39.3587 7.63685 39.2977 7.61745 39.5218 7.59649C39.7459 7.57552 40.2552 7.55294 40.7447 7.45128C41.2342 7.34962 41.7039 7.16892 42.0087 6.96397C42.3135 6.75902 42.4533 6.52992 42.5573 6.37178C42.6613 6.21364 42.7295 6.1265 42.6291 6.14264C42.5286 6.15878 42.2597 6.27815 41.9352 6.41854C41.6106 6.55893 41.2306 6.72032 40.8164 6.86717C40.4022 7.01401 39.9546 7.14612 39.714 7.20591C39.4735 7.2657 39.4412 7.2528 39.4842 7.23022C39.5273 7.20764 39.6456 7.17534 39.9253 7.08659C40.205 6.99784 40.646 6.85265 41.0387 6.6687C41.4314 6.48474 41.7756 6.26203 41.9926 6.03125C42.2096 5.80048 42.2992 5.56174 42.3763 5.37293C42.4389 5.21952 42.4932 5.09912 42.4633 5.10264C42.4564 5.10345 42.445 5.11086 42.4282 5.12599C42.3386 5.20668 42.0948 5.50681 41.7846 5.77952C41.4744 6.05224 41.0979 6.29755 40.7088 6.50733C40.3197 6.71711 39.9181 6.89135 39.7194 6.96589C39.5206 7.04043 39.5247 7.01528 39.5445 6.96391C39.5643 6.91253 39.5998 6.83497 39.6239 6.76934C39.648 6.70371 39.6607 6.65009 39.603 6.69745C39.5453 6.74482 39.4173 6.89316 39.2981 7.01696C39.1789 7.14077 39.0686 7.23998 38.8956 7.31929C38.7225 7.3986 38.4867 7.45794 38.1431 7.55493C37.7995 7.65192 37.3482 7.78653 36.9121 7.93715C36.4759 8.08777 36.0552 8.25433 35.8016 8.3445C35.5479 8.43467 35.4617 8.44833 35.5505 8.39584C35.6392 8.34336 35.9029 8.22472 36.1197 8.09578C36.3365 7.96684 36.5064 7.82767 36.6243 7.7204C36.7422 7.61314 36.8081 7.53781 36.6623 7.59259C36.5165 7.64736 36.159 7.83222 35.8025 7.97344C35.4459 8.11465 35.0903 8.21217 34.7978 8.29404C34.5052 8.37591 34.2758 8.44207 34.057 8.47676C33.8382 8.51146 33.6303 8.51467 33.4043 8.50983C33.1784 8.50499 32.9346 8.49206 32.7015 8.50901C32.4685 8.52596 32.3291 8.53744 32.0776 8.59938C31.9424 8.63267 32.1942 8.56704 32.3114 8.36052C32.3722 8.25331 32.3652 8.22035 32.2878 8.26431C32.1406 8.3478 32.0723 8.36301 31.8974 8.43644C31.7226 8.50987 31.5774 8.54531 31.4571 8.56152C31.3368 8.57773 31.2414 8.57464 31.1595 8.63813C31.0776 8.70162 31.0092 8.83173 30.9014 8.9447C30.7936 9.05768 30.6466 9.15353 30.4602 9.26079C30.2738 9.36805 30.0482 9.48669 29.7984 9.64301C29.5486 9.79933 29.2748 9.99329 29.0872 10.1188C28.8995 10.2443 28.7981 10.3013 28.6802 10.3082C28.5623 10.315 28.4279 10.2717 28.2631 10.2626C28.0983 10.2535 27.903 10.2786 27.737 10.3288C27.6414 10.3577 27.5556 10.395 27.4999 10.452C27.5433 10.4857 27.593 10.514 27.6502 10.5344C27.8122 10.5941 28.1065 10.7179 27.9951 10.9152C27.9653 10.9608 27.8966 10.9844 27.852 10.9957C27.9914 11.073 28.2788 11.2065 28.1215 11.3783C28.0525 11.4485 27.9278 11.4481 27.8419 11.4517C28.0255 11.5116 27.9726 11.747 27.8312 11.7814C27.9638 11.8973 27.8163 12.0935 27.6457 12.045C27.5956 12.0515 27.5804 12.1552 27.5098 12.1685C27.5649 12.3088 27.3811 12.406 27.2605 12.3572C27.2322 12.4151 27.1484 12.431 27.2569 12.4741C27.4194 12.5642 27.4091 12.8191 27.1947 12.8356C27.1345 12.8631 26.9954 12.8146 26.9868 12.8409C27.1056 12.9619 26.9773 13.1919 26.7953 13.1187C26.6779 13.0473 26.7569 13.2391 26.7141 13.3046C26.6959 13.4568 26.5006 13.6427 26.3376 13.5126C26.2835 13.4701 26.3038 13.6361 26.2692 13.663C26.1968 13.8501 26.0918 14.1034 25.8591 14.1459C25.741 14.089 25.7691 14.2628 25.702 14.3182C25.643 14.3943 25.4982 14.3929 25.4431 14.311C25.4223 14.3618 25.3815 14.4383 25.3432 14.4984C25.3257 14.5259 25.3071 14.5535 25.2839 14.5774C25.2373 14.6256 25.1782 14.6765 25.1254 14.7054C25.0726 14.7343 25.0484 14.7137 25.0324 14.6749C25.0163 14.6362 25.0083 14.5794 24.9988 14.5621C24.9894 14.5448 24.9785 14.567 24.9596 14.5763C24.9406 14.5856 24.9137 14.582 24.8982 14.572C24.8827 14.5619 24.8786 14.5453 24.8703 14.5507C24.862 14.5561 24.8494 14.5835 24.8218 14.5962C24.7942 14.6089 24.7519 14.6068 24.7186 14.5845C24.6906 14.5659 24.669 14.5323 24.6451 14.4846C24.6034 14.4219 24.576 14.3575 24.5569 14.311C24.5018 14.3929 24.3569 14.3943 24.298 14.3182C24.2309 14.2628 24.259 14.089 24.1409 14.1459C23.9082 14.1034 23.8032 13.8501 23.7308 13.663C23.6962 13.6361 23.7165 13.4701 23.6624 13.5126C23.4993 13.6427 23.3041 13.4568 23.2859 13.3046C23.243 13.2391 23.3221 13.0473 23.2047 13.1187C23.0227 13.1919 22.8944 12.9619 23.0132 12.8409C23.0046 12.8146 22.8655 12.8631 22.8053 12.8356C22.5909 12.8191 22.5805 12.5642 22.7431 12.4741C22.8515 12.431 22.7678 12.4151 22.7394 12.3572C22.6188 12.406 22.435 12.3088 22.4902 12.1685C22.4196 12.1552 22.4044 12.0515 22.3543 12.045C22.1837 12.0935 22.0361 11.8973 22.1688 11.7814C22.0274 11.747 21.9745 11.5116 22.158 11.4517C22.0721 11.4481 21.9475 11.4485 21.8785 11.3783C21.7211 11.2065 22.0086 11.073 22.148 10.9957C22.1034 10.9844 22.0346 10.9608 22.0049 10.9152C21.8935 10.7179 22.1878 10.5941 22.3498 10.5344C22.4069 10.514 22.4567 10.4857 22.5 10.452C22.4443 10.395 22.3586 10.3577 22.263 10.3288C22.0969 10.2786 21.9017 10.2535 21.7369 10.2626C21.572 10.2717 21.4377 10.315 21.3198 10.3082C21.2018 10.3013 21.1005 10.2443 20.9128 10.1188C20.7252 9.99329 20.4513 9.79933 20.2016 9.64301C19.9518 9.48669 19.7262 9.36805 19.5398 9.26079C19.3534 9.15353 19.2064 9.05768 19.0986 8.9447C18.9908 8.83173 18.9224 8.70162 18.8405 8.63813C18.7586 8.57464 18.6632 8.57773 18.5429 8.56152C18.4226 8.54531 18.2774 8.50987 18.1025 8.43644C17.9277 8.36301 17.7233 8.2517 17.6391 8.21942C17.5548 8.18714 17.6863 8.40624 17.7732 8.47636C17.9268 8.60041 18.091 8.62601 17.9224 8.59938C17.7538 8.57275 17.5315 8.52596 17.2984 8.50901C17.0653 8.49207 16.8216 8.505 16.5956 8.50983C16.3697 8.51467 16.1617 8.51146 15.943 8.47676C15.7242 8.44207 15.4948 8.37591 15.2022 8.29404C14.9097 8.21217 14.5541 8.11465 14.1975 7.97344C13.8409 7.83222 13.4834 7.64736 13.3376 7.59259C13.1918 7.53781 13.2578 7.61314 13.3757 7.7204C13.4936 7.82767 13.6635 7.96684 13.8803 8.09578C14.0971 8.22472 14.3608 8.34336 14.4495 8.39584C14.5383 8.44833 14.4521 8.43467 14.1984 8.3445C13.9448 8.25433 13.524 8.08777 13.0879 7.93715C12.6518 7.78653 12.2005 7.65192 11.8569 7.55493C11.5133 7.45794 11.2775 7.3986 11.1044 7.31929C10.9313 7.23998 10.821 7.14077 10.7019 7.01696C10.5827 6.89316 10.4547 6.74482 10.397 6.69745C10.3393 6.65009 10.352 6.70371 10.3761 6.76934C10.4002 6.83497 10.4357 6.91253 10.4555 6.96391C10.4753 7.01528 10.4794 7.04043 10.2806 6.96589C10.0819 6.89135 9.68027 6.71711 9.29119 6.50733C8.90211 6.29755 8.52554 6.05224 8.21535 5.77952C7.90517 5.50681 7.66139 5.20668 7.57174 5.12599C7.55493 5.11086 7.54357 5.10346 7.53667 5.10264H7.53668ZM23.7652 8.61149C23.719 8.61644 23.7602 8.6714 23.805 8.71336C23.8498 8.75533 23.8983 8.78429 23.9691 8.80038C24.0399 8.81646 24.1332 8.81964 24.1655 8.83091C24.1978 8.84219 24.169 8.86161 24.09 8.86323C24.011 8.86485 23.8821 8.8487 23.7607 8.8628C23.6392 8.87691 23.5254 8.92129 23.5191 8.93906C23.5129 8.95683 23.6141 8.94792 23.7123 8.9572C23.8104 8.96649 23.9054 8.99391 23.9807 9.02053C24.056 9.04715 24.1117 9.07301 24.1269 9.09639C24.1422 9.11976 24.117 9.14069 24.0658 9.13342C24.0147 9.12615 23.9377 9.09076 23.8373 9.0714C23.7369 9.05203 23.6133 9.04881 23.5007 9.07544C23.3882 9.10206 23.287 9.15848 23.2776 9.18634C23.2681 9.21421 23.3506 9.21338 23.4138 9.2279C23.477 9.24243 23.5209 9.27224 23.533 9.29602C23.5451 9.3198 23.5253 9.33759 23.4236 9.35052C23.3219 9.36344 23.1383 9.37153 22.9768 9.46156C22.8153 9.55159 22.6765 9.72317 22.6518 9.79907C22.6272 9.87497 22.7168 9.85481 22.7831 9.8318C22.8495 9.80879 22.8924 9.78299 22.9462 9.77251C22.9999 9.76203 23.0646 9.76685 23.0798 9.77491C23.0951 9.78297 23.061 9.79425 23.0198 9.80798C22.9785 9.8217 22.9302 9.83787 22.9041 9.88712C22.8781 9.93637 22.8745 10.0185 22.8579 10.1162C22.8413 10.2138 22.8118 10.3267 22.7512 10.4139C22.6907 10.501 22.5993 10.5623 22.4603 10.6333C22.3214 10.7044 22.1351 10.785 22.1292 10.8262C22.1234 10.8674 22.2981 10.869 22.4137 10.8472C22.5294 10.8254 22.5859 10.7802 22.5886 10.7915C22.5913 10.8028 22.5402 10.8706 22.4496 10.9501C22.3591 11.0295 22.2291 11.1206 22.1242 11.1816C22.0193 11.2425 21.9396 11.2732 22.0046 11.2922C22.0697 11.3111 22.2793 11.3184 22.4044 11.3095C22.5294 11.3006 22.5697 11.2756 22.5518 11.3046C22.5338 11.3337 22.4577 11.4168 22.3644 11.4873C22.271 11.5577 22.1607 11.6155 22.1903 11.6292C22.2199 11.6429 22.3894 11.6126 22.5024 11.5732C22.6154 11.5338 22.672 11.4853 22.6708 11.5135C22.6697 11.5416 22.611 11.6463 22.5085 11.7296C22.406 11.8128 22.2598 11.8744 22.2668 11.8965C22.2739 11.9186 22.4343 11.9011 22.5659 11.8627C22.6976 11.8243 22.8004 11.7649 22.8509 11.7486C22.9014 11.7322 22.8996 11.7588 22.813 11.8218C22.7264 11.8848 22.5554 11.9839 22.5384 12.0227C22.5214 12.0615 22.6585 12.0397 22.776 11.9989C22.8934 11.9582 22.9911 11.8985 23.0045 11.9025C23.018 11.9065 22.9471 11.9743 22.8462 12.0506C22.7454 12.1268 22.6146 12.2115 22.6326 12.2236C22.6505 12.2357 22.8172 12.1752 22.9337 12.124C23.0502 12.0727 23.1166 12.0308 23.1104 12.0445C23.1041 12.0582 23.0251 12.1276 22.9651 12.1889C22.905 12.2503 22.8638 12.3035 22.8979 12.3035C22.932 12.3035 23.0413 12.2503 23.0942 12.2382C23.147 12.226 23.1434 12.2551 23.121 12.3005C23.0986 12.346 23.0574 12.4077 22.9725 12.4804C22.8877 12.5531 22.7595 12.6365 22.7788 12.6755C22.7982 12.7145 22.9652 12.7088 23.0913 12.658C23.2173 12.6071 23.3023 12.511 23.3341 12.5016C23.3658 12.4922 23.3442 12.5697 23.3048 12.6528C23.2653 12.7359 23.208 12.8247 23.1668 12.8892C23.1256 12.9538 23.1004 12.9941 23.1364 12.9892C23.1723 12.9844 23.269 12.9344 23.3433 12.8804C23.4177 12.8263 23.4698 12.7682 23.4752 12.7932C23.4806 12.8181 23.4393 12.9264 23.4267 13.0313C23.4142 13.1362 23.4303 13.2378 23.4536 13.3112C23.477 13.3847 23.5074 13.4298 23.5513 13.4112C23.5953 13.3927 23.6527 13.3104 23.6921 13.2233C23.7316 13.1362 23.753 13.0441 23.7656 13.0487C23.7782 13.0533 23.7819 13.1545 23.794 13.2536C23.8061 13.3528 23.8266 13.4498 23.8548 13.5449C23.883 13.64 23.9189 13.733 23.9771 13.829C24.0353 13.925 24.1159 14.024 24.1376 14.0077C24.1593 13.9914 24.1221 13.8598 24.1305 13.7297C24.1389 13.5997 24.1929 13.4712 24.2573 13.3773C24.3217 13.2835 24.3964 13.2244 24.4192 13.2283C24.442 13.2323 24.413 13.2993 24.3881 13.3719C24.3632 13.4444 24.3426 13.5223 24.3284 13.6042C24.3143 13.686 24.3066 13.7717 24.3261 13.909C24.3457 14.0463 24.3922 14.235 24.425 14.2346C24.4577 14.2342 24.4765 14.0445 24.52 13.8909C24.5634 13.7373 24.6316 13.6194 24.6518 13.6024C24.672 13.5855 24.6323 13.7175 24.6272 13.7755C24.5997 14.0816 24.6692 14.2442 24.6979 14.3103C24.7266 14.3765 24.7561 14.4315 24.8092 14.474C24.8431 14.5011 24.8303 14.449 24.8319 14.4072C24.84 14.1878 24.9205 14.1265 24.93 14.1239C24.9394 14.1213 24.9389 14.1647 24.94 14.2187C24.9412 14.2727 24.9441 14.3372 24.9495 14.3734C24.955 14.4096 24.963 14.4173 24.9708 14.4C24.9785 14.3826 24.986 14.3403 24.9994 14.2887C25.0129 14.2371 25.0324 14.1761 25.0445 14.1506C25.0565 14.125 25.0611 14.1348 25.0689 14.1679C25.0766 14.201 25.0875 14.2571 25.0958 14.3184C25.1041 14.3796 25.1099 14.4456 25.1194 14.4743C25.1289 14.503 25.4219 14.2679 25.3728 13.7755C25.3671 13.7176 25.328 13.5855 25.3482 13.6024C25.3684 13.6194 25.4366 13.7373 25.48 13.8909C25.5235 14.0445 25.5423 14.2342 25.575 14.2346C25.6078 14.2351 25.6543 14.0463 25.6738 13.909C25.6934 13.7717 25.6857 13.686 25.6716 13.6042C25.6574 13.5223 25.6368 13.4444 25.6119 13.3719C25.587 13.2993 25.558 13.2323 25.5808 13.2283C25.6036 13.2244 25.6783 13.2835 25.7427 13.3773C25.8071 13.4712 25.8611 13.5997 25.8695 13.7297C25.8779 13.8598 25.8407 13.9914 25.8624 14.0077C25.8841 14.024 25.9647 13.925 26.0229 13.829C26.0811 13.733 26.117 13.64 26.1452 13.5449C26.1734 13.4498 26.1939 13.3528 26.206 13.2536C26.2181 13.1545 26.2218 13.0533 26.2344 13.0487C26.247 13.0441 26.2685 13.1362 26.3079 13.2233C26.3473 13.3104 26.4047 13.3927 26.4487 13.4112C26.4926 13.4298 26.523 13.3847 26.5464 13.3112C26.5697 13.2378 26.5858 13.1362 26.5733 13.0313C26.5607 12.9264 26.5194 12.8181 26.5248 12.7932C26.5302 12.7682 26.5823 12.8263 26.6567 12.8804C26.731 12.9344 26.8277 12.9844 26.8636 12.9892C26.8996 12.9941 26.8745 12.9538 26.8332 12.8892C26.792 12.8247 26.7347 12.7359 26.6952 12.6528C26.6558 12.5697 26.6342 12.4922 26.6659 12.5016C26.6977 12.511 26.7827 12.6071 26.9087 12.658C27.0348 12.7088 27.2018 12.7145 27.2212 12.6755C27.2405 12.6365 27.1123 12.5531 27.0275 12.4804C26.9426 12.4077 26.9014 12.346 26.879 12.3005C26.8566 12.2551 26.853 12.226 26.9059 12.2382C26.9587 12.2503 27.068 12.3035 27.1021 12.3035C27.1362 12.3035 27.095 12.2503 27.0349 12.1889C26.9749 12.1276 26.8959 12.0582 26.8897 12.0445C26.8834 12.0308 26.9498 12.0727 27.0663 12.124C27.1828 12.1752 27.3495 12.2357 27.3674 12.2236C27.3854 12.2115 27.2546 12.1268 27.1538 12.0506C27.0529 11.9743 26.982 11.9065 26.9955 11.9025C27.0089 11.8985 27.1066 11.9582 27.224 11.9989C27.3415 12.0397 27.4786 12.0615 27.4616 12.0227C27.4446 11.9839 27.2736 11.8848 27.187 11.8218C27.1004 11.7588 27.0986 11.7322 27.1491 11.7486C27.1996 11.7649 27.3024 11.8243 27.4341 11.8627C27.5657 11.9011 27.7261 11.9186 27.7332 11.8965C27.7402 11.8744 27.5941 11.8128 27.4915 11.7296C27.389 11.6463 27.3303 11.5416 27.3292 11.5135C27.3281 11.4853 27.3846 11.5338 27.4976 11.5732C27.6106 11.6126 27.7801 11.6429 27.8097 11.6292C27.8393 11.6155 27.729 11.5577 27.6357 11.4873C27.5423 11.4168 27.4662 11.3337 27.4482 11.3046C27.4303 11.2756 27.4706 11.3006 27.5956 11.3095C27.7207 11.3184 27.9303 11.3111 27.9954 11.2922C28.0604 11.2732 27.9807 11.2425 27.8758 11.1816C27.7709 11.1206 27.6409 11.0295 27.5504 10.9501C27.4598 10.8706 27.4087 10.8028 27.4114 10.7915C27.4141 10.7802 27.4706 10.8254 27.5863 10.8472C27.7019 10.869 27.8766 10.8674 27.8708 10.8262C27.8649 10.785 27.6786 10.7044 27.5397 10.6333C27.4007 10.5623 27.3093 10.501 27.2488 10.4139C27.1882 10.3267 27.1587 10.2138 27.1421 10.1162C27.1255 10.0185 27.1219 9.93637 27.0959 9.88712C27.0699 9.83787 27.0215 9.8217 26.9802 9.80798C26.939 9.79425 26.9049 9.78297 26.9202 9.77491C26.9354 9.76685 27.0001 9.76204 27.0538 9.77251C27.1076 9.78299 27.1506 9.80879 27.2169 9.8318C27.2832 9.85481 27.3728 9.87497 27.3482 9.79907C27.3235 9.72317 27.1847 9.55159 27.0232 9.46156C26.8617 9.37154 26.6782 9.36344 26.5764 9.35052C26.4747 9.33759 26.4549 9.3198 26.467 9.29602C26.4791 9.27224 26.523 9.24243 26.5862 9.2279C26.6494 9.21338 26.7319 9.21421 26.7225 9.18634C26.713 9.15848 26.6118 9.10206 26.4993 9.07544C26.3868 9.04882 26.2631 9.05203 26.1627 9.0714C26.0623 9.09076 25.9853 9.12615 25.9342 9.13342C25.883 9.14069 25.8578 9.11976 25.8731 9.09639C25.8883 9.07301 25.944 9.04715 26.0193 9.02053C26.0946 8.99391 26.1896 8.96649 26.2877 8.9572C26.3859 8.94792 26.4871 8.95682 26.4809 8.93906C26.4746 8.92129 26.3608 8.87691 26.2393 8.8628C26.1179 8.84868 25.989 8.86483 25.91 8.86323C25.831 8.86161 25.8022 8.84219 25.8345 8.83091C25.8668 8.81964 25.9601 8.81646 26.0309 8.80038C26.1017 8.78429 26.1502 8.75533 26.195 8.71336C26.2398 8.6714 26.281 8.61644 26.2348 8.61149C26.1886 8.60654 26.0551 8.65151 25.9715 8.66393C25.8879 8.67636 25.8546 8.6562 25.8003 8.64093C25.7459 8.62566 25.6707 8.61531 25.5992 8.64162C25.5276 8.66792 25.4597 8.73082 25.4051 8.76635C25.3505 8.80189 25.3299 8.79762 25.3352 8.7769C25.3598 8.6809 25.4277 8.70466 25.45 8.6462C25.3895 8.56584 25.1876 8.78382 25.2952 8.51366C25.1399 8.49545 25.0797 8.65043 25.0389 8.64121C24.9951 8.63129 24.9609 8.45288 24.8223 8.45061C24.8667 8.61312 24.8163 8.66633 24.7365 8.65825C24.6566 8.65018 24.5545 8.6228 24.55 8.6462C24.5455 8.66961 24.6388 8.74381 24.6648 8.7769C24.6908 8.80998 24.6495 8.80189 24.5949 8.76635C24.5403 8.73082 24.4724 8.66792 24.4009 8.64162C24.3293 8.61531 24.2541 8.62566 24.1997 8.64093C24.1454 8.6562 24.1121 8.67636 24.0285 8.66393C23.9449 8.65151 23.8114 8.60654 23.7652 8.61149H23.7652ZM23.7861 10.0073C23.781 10.0199 23.7759 10.0325 23.7715 10.0452C23.7468 10.1162 23.7297 10.1847 23.7275 10.2501C23.7253 10.3155 23.7378 10.3776 23.7661 10.4321C23.7943 10.4866 23.8382 10.5333 23.9037 10.5587C23.9691 10.5842 24.0561 10.5882 24.1305 10.5777C24.2049 10.5672 24.2667 10.5422 24.3151 10.4943C24.3635 10.4463 24.3986 10.3752 24.4142 10.3042C24.4193 10.2813 24.4221 10.2584 24.4229 10.2355C24.4663 10.2283 24.4451 10.181 24.599 10.1175C24.9033 9.99215 25.2202 10.0378 25.4034 10.128C25.465 10.1584 25.5337 10.2283 25.5771 10.2355C25.5779 10.2584 25.5807 10.2813 25.5858 10.3042C25.6014 10.3752 25.6365 10.4463 25.6849 10.4943C25.7333 10.5422 25.7951 10.5672 25.8695 10.5777C25.9439 10.5882 26.0309 10.5842 26.0963 10.5587C26.1618 10.5333 26.2057 10.4866 26.2339 10.4321C26.2622 10.3776 26.2747 10.3155 26.2725 10.2501C26.2703 10.1847 26.2532 10.1162 26.2285 10.0452C26.2241 10.0325 26.219 10.0199 26.2139 10.0073C26.2378 10.0104 26.2617 10.0134 26.2846 10.0154C26.3814 10.0234 26.4621 10.0138 26.4961 10.0694C26.5302 10.1251 26.5177 10.2461 26.4791 10.3534C26.4406 10.4607 26.376 10.5543 26.3005 10.6186C26.225 10.683 26.1385 10.7181 26.0531 10.7363C25.9676 10.7544 25.8834 10.7556 25.8039 10.7405C25.7243 10.7254 25.6495 10.6939 25.5937 10.6638C25.5378 10.6338 25.501 10.6052 25.4679 10.5632C25.4347 10.5212 25.4052 10.466 25.3886 10.4085C25.372 10.351 25.3684 10.2913 25.3344 10.2485C25.3003 10.2058 25.2357 10.18 25.1604 10.1663C25.0396 10.1473 24.9567 10.1437 24.8396 10.1663C24.7643 10.18 24.6997 10.2058 24.6656 10.2485C24.6316 10.2913 24.628 10.351 24.6114 10.4085C24.5948 10.466 24.5653 10.5212 24.5321 10.5632C24.499 10.6052 24.4622 10.6338 24.4063 10.6638C24.3505 10.6939 24.2757 10.7254 24.1962 10.7405C24.1166 10.7556 24.0324 10.7544 23.9469 10.7363C23.8615 10.7181 23.775 10.683 23.6995 10.6186C23.624 10.5543 23.5594 10.4607 23.5209 10.3534C23.4823 10.2461 23.4698 10.1251 23.5039 10.0694C23.5379 10.0138 23.6186 10.0234 23.7154 10.0154C23.7383 10.0135 23.7622 10.0104 23.7861 10.0073V10.0073ZM24.2426 10.2082C24.2435 10.2574 24.2309 10.2978 24.2085 10.3308C24.1861 10.3639 24.1538 10.3897 24.1116 10.4018C24.0695 10.4139 24.0175 10.4123 23.9745 10.3962C23.9314 10.3801 23.8974 10.3494 23.8817 10.3106C23.866 10.2719 23.8687 10.2252 23.8808 10.182C23.8929 10.1388 23.9121 10.0973 23.9413 10.0718C24.05 10.2204 24.2 10.1879 24.2426 10.2082H24.2426ZM26.0283 10.0764C26.0872 10.0757 26.1071 10.1388 26.1192 10.182C26.1313 10.2252 26.134 10.2719 26.1183 10.3106C26.1026 10.3494 26.0686 10.3801 26.0255 10.3962C25.9825 10.4123 25.9305 10.4139 25.8884 10.4018C25.8462 10.3897 25.8139 10.3639 25.7915 10.3308C25.7691 10.2978 25.7566 10.2574 25.7575 10.2082C26.012 10.1876 26.0283 10.0764 26.0283 10.0764V10.0764ZM24.8988 10.3658C24.9336 10.3641 24.9679 10.3664 24.9841 10.3735C25.0002 10.3806 24.9983 10.3926 24.9812 10.3978C24.964 10.4029 24.9318 10.4012 24.8985 10.4069C24.8652 10.4126 24.831 10.4257 24.8164 10.4448C24.8018 10.4639 24.8068 10.489 24.7967 10.499C24.7866 10.509 24.7613 10.5039 24.7518 10.4862C24.7422 10.4684 24.7486 10.4383 24.7581 10.4183C24.7676 10.3984 24.7803 10.3886 24.8044 10.3809C24.8285 10.3733 24.864 10.3675 24.8988 10.3658H24.8988ZM25.1012 10.3658C25.136 10.3675 25.1715 10.3733 25.1956 10.3809C25.2197 10.3886 25.2324 10.3984 25.2419 10.4183C25.2514 10.4383 25.2578 10.4684 25.2482 10.4862C25.2387 10.5039 25.2134 10.509 25.2033 10.499C25.1932 10.489 25.1982 10.4639 25.1836 10.4448C25.169 10.4257 25.1348 10.4126 25.1015 10.4069C25.0682 10.4012 25.036 10.4029 25.0188 10.3978C25.0017 10.3926 24.9998 10.3806 25.0159 10.3735C25.0321 10.3664 25.0664 10.3641 25.1012 10.3658H25.1012ZM24.5543 10.7033C24.5569 10.7029 24.5596 10.7029 24.5622 10.7035C24.5831 10.7087 24.6034 10.751 24.604 10.7857C24.6047 10.8205 24.5856 10.8479 24.566 10.8758C24.5464 10.9038 24.526 10.9324 24.488 10.9466C24.45 10.9609 24.3942 10.9608 24.3929 10.9277C24.3917 10.8946 24.4449 10.8286 24.4823 10.7794C24.5151 10.7365 24.5356 10.7067 24.5543 10.7033V10.7033ZM25.4457 10.7033C25.4644 10.7067 25.4849 10.7365 25.5177 10.7795C25.5551 10.8286 25.6084 10.8946 25.6071 10.9277C25.6058 10.9609 25.55 10.9609 25.512 10.9466C25.474 10.9324 25.4536 10.9038 25.434 10.8759C25.4144 10.8479 25.3953 10.8205 25.396 10.7858C25.3966 10.751 25.4169 10.7087 25.4378 10.7035C25.4404 10.7029 25.4431 10.7029 25.4457 10.7033V10.7033ZM24.7124 10.7551C24.7146 10.7544 24.7181 10.76 24.7251 10.7714C24.739 10.7943 24.7669 10.8399 24.7853 10.9267C24.8037 11.0134 24.8126 11.1411 24.8176 11.2746C24.8227 11.4082 24.8239 11.5473 24.8163 11.5952C24.8087 11.6432 24.7922 11.5998 24.7783 11.5245C24.7644 11.4492 24.7529 11.342 24.7422 11.2553C24.7314 11.1686 24.7213 11.1023 24.6953 11.0767C24.6694 11.051 24.6275 11.0658 24.5831 11.0858C24.5387 11.1058 24.4918 11.1309 24.4341 11.1103C24.3763 11.0898 24.308 11.0236 24.2947 10.9985C24.2814 10.9734 24.3232 10.9894 24.3752 11.002C24.4272 11.0145 24.4893 11.0236 24.5432 11.0094C24.597 10.9951 24.6427 10.9574 24.6693 10.9101C24.6959 10.8628 24.7035 10.8056 24.7073 10.7771C24.7092 10.7629 24.7102 10.7558 24.7124 10.7551V10.7551ZM25.2876 10.7551C25.2898 10.7558 25.2908 10.7629 25.2927 10.7771C25.2965 10.8056 25.3041 10.8628 25.3307 10.9101C25.3573 10.9574 25.403 10.9951 25.4568 11.0094C25.5107 11.0236 25.5728 11.0145 25.6248 11.002C25.6768 10.9894 25.7186 10.9734 25.7053 10.9985C25.692 11.0236 25.6237 11.0898 25.5659 11.1103C25.5082 11.1309 25.4613 11.1058 25.4169 11.0858C25.3725 11.0658 25.3306 11.051 25.3047 11.0767C25.2787 11.1023 25.2686 11.1686 25.2578 11.2553C25.2471 11.342 25.2356 11.4492 25.2217 11.5245C25.2078 11.5998 25.1913 11.6432 25.1837 11.5952C25.1761 11.5473 25.1773 11.4082 25.1824 11.2746C25.1874 11.1411 25.1963 11.0134 25.2147 10.9267C25.2331 10.8399 25.261 10.7943 25.2749 10.7714C25.2819 10.76 25.2854 10.7544 25.2876 10.7551L25.2876 10.7551ZM24.2047 11.0219C24.2178 11.0231 24.2361 11.0381 24.2617 11.0747C24.313 11.148 24.3942 11.3077 24.4715 11.4025C24.5489 11.4972 24.6224 11.5268 24.6718 11.5998C24.7212 11.6728 24.7466 11.7893 24.7885 11.9068C24.8303 12.0244 24.8886 12.1429 24.9406 12.2091C24.9612 12.2353 24.9801 12.2533 24.9975 12.2716C24.9974 12.2734 24.9975 12.275 24.9975 12.2768C24.9983 12.276 24.9992 12.275 25 12.2742C25.0008 12.275 25.0017 12.276 25.0025 12.2768C25.0025 12.275 25.0026 12.2734 25.0025 12.2716C25.0199 12.2533 25.0388 12.2353 25.0594 12.2091C25.1114 12.1429 25.1697 12.0244 25.2115 11.9068C25.2534 11.7893 25.2788 11.6728 25.3282 11.5998C25.3776 11.5268 25.4511 11.4972 25.5285 11.4025C25.6058 11.3077 25.687 11.148 25.7383 11.0747C25.7896 11.0015 25.8112 11.0147 25.8211 11.0519C25.831 11.0892 25.8292 11.1506 25.8471 11.1877C25.865 11.2248 25.9026 11.2377 25.9596 11.2603C26.0165 11.2829 26.0928 11.3152 26.1394 11.3547C26.186 11.3942 26.203 11.441 26.1936 11.4934C26.1842 11.5459 26.1483 11.604 26.0797 11.6617C26.0112 11.7194 25.9099 11.7767 25.8194 11.838C25.7288 11.8993 25.649 11.9647 25.5953 12.02C25.5417 12.0753 25.5142 12.1206 25.4928 12.166C25.4714 12.2114 25.4562 12.257 25.4499 12.2376C25.4436 12.2182 25.4461 12.1338 25.4714 12.0654C25.4968 11.9969 25.545 11.9444 25.6122 11.8942C25.6793 11.844 25.7656 11.7961 25.8404 11.7504C25.9152 11.7048 25.9784 11.6616 25.9911 11.6341C26.0038 11.6067 25.9658 11.5953 25.9532 11.561C25.9405 11.5268 25.9532 11.4698 25.9316 11.4675C25.9101 11.4652 25.8543 11.5177 25.8175 11.5131C25.7808 11.5085 25.763 11.4469 25.725 11.4686C25.6869 11.4903 25.6286 11.5953 25.569 11.6991C25.5094 11.8029 25.4486 11.9057 25.4131 11.9866C25.3776 12.0676 25.3675 12.127 25.3624 12.224C25.3574 12.321 25.3574 12.4557 25.3434 12.5572C25.3295 12.6587 25.3016 12.7272 25.2584 12.7717C25.2153 12.8162 25.157 12.8367 25.1291 12.7899C25.1012 12.7431 25.1038 12.6292 25.0911 12.5652C25.0784 12.5012 25.0505 12.4876 25.0327 12.5378C25.0185 12.578 25.0104 12.6565 25 12.7199C24.9896 12.6565 24.9815 12.578 24.9673 12.5378C24.9495 12.4876 24.9216 12.5012 24.9089 12.5652C24.8962 12.6292 24.8988 12.7431 24.8709 12.7899C24.843 12.8367 24.7847 12.8162 24.7416 12.7717C24.6984 12.7272 24.6705 12.6587 24.6566 12.5572C24.6426 12.4557 24.6426 12.321 24.6376 12.224C24.6325 12.127 24.6224 12.0676 24.5869 11.9866C24.5514 11.9057 24.4906 11.8029 24.431 11.6991C24.3714 11.5953 24.3131 11.4903 24.275 11.4686C24.237 11.4469 24.2192 11.5085 24.1825 11.5131C24.1457 11.5177 24.0899 11.4652 24.0684 11.4675C24.0468 11.4698 24.0595 11.5268 24.0468 11.561C24.0342 11.5953 23.9962 11.6067 24.0089 11.6341C24.0216 11.6616 24.0848 11.7048 24.1596 11.7504C24.2344 11.7961 24.3207 11.844 24.3878 11.8942C24.455 11.9444 24.5032 11.9969 24.5286 12.0654C24.5539 12.1338 24.5564 12.2182 24.5501 12.2376C24.5438 12.257 24.5286 12.2114 24.5072 12.166C24.4858 12.1206 24.4583 12.0753 24.4047 12.02C24.351 11.9647 24.2712 11.8993 24.1806 11.838C24.0901 11.7767 23.9888 11.7194 23.9203 11.6617C23.8517 11.604 23.8158 11.5459 23.8064 11.4934C23.797 11.441 23.814 11.3942 23.8606 11.3547C23.9072 11.3152 23.9835 11.2829 24.0404 11.2603C24.0974 11.2377 24.135 11.2248 24.1529 11.1877C24.1708 11.1506 24.169 11.0892 24.1789 11.0519C24.1838 11.0333 24.1917 11.0207 24.2047 11.0219V11.0219ZM20.8294 13.8221C20.6806 13.8192 20.5394 13.8862 20.4486 14.0511C20.3518 14.227 20.3124 14.5142 20.3303 14.8095C20.3482 15.1048 20.4236 15.4082 20.5742 15.7535C20.7248 16.0988 20.9507 16.4861 21.1049 16.7153C21.2591 16.9444 21.3415 17.0154 21.3361 16.925C21.3308 16.8347 21.2375 16.5829 21.164 16.3183C21.0905 16.0536 21.0367 15.7762 21.0116 15.5663C20.9865 15.3565 20.9901 15.2145 21.0475 15.1855C21.1048 15.1565 21.2161 15.2404 21.2448 15.3308C21.2735 15.4211 21.2197 15.5179 21.2268 15.6728C21.234 15.8277 21.3021 16.0407 21.372 16.1747C21.442 16.3086 21.5137 16.3635 21.5478 16.4425C21.5818 16.5216 21.5782 16.6249 21.5818 16.7927C21.5853 16.9605 21.5961 17.1929 21.5513 17.3413C21.5065 17.4898 21.4061 17.5543 21.32 17.5027C21.2339 17.4511 21.1623 17.2832 21.0511 17.0622C20.9399 16.8411 20.7893 16.5668 20.6476 16.286C20.506 16.0052 20.3733 15.7178 20.2926 15.605C20.212 15.4921 20.1833 15.5534 20.1349 15.5082C20.0864 15.4631 20.0183 15.3113 19.934 15.1774C19.8498 15.0435 19.7493 14.9273 19.6741 14.9063C19.5988 14.8853 19.5486 14.9595 19.4697 14.9127C19.3908 14.866 19.2832 14.6982 19.12 14.5239C18.9569 14.3496 18.7382 14.1689 18.5356 14.0688C18.333 13.9688 18.1465 13.9494 17.9816 14.0462C17.8167 14.143 17.6732 14.3561 17.6606 14.7304C17.648 15.1048 17.7664 15.6405 17.9439 16.023C18.1214 16.4054 18.3581 16.6345 18.4575 16.7032C18.5569 16.7719 18.519 16.6802 18.4684 16.5293C18.4177 16.3785 18.3544 16.1685 18.3176 15.9471C18.2808 15.7258 18.2707 15.4933 18.272 15.3585C18.2732 15.2237 18.2859 15.1872 18.3366 15.1963C18.3873 15.2055 18.4761 15.2603 18.5433 15.3093C18.6105 15.3584 18.6561 15.4017 18.6637 15.5181C18.6713 15.6344 18.6409 15.8239 18.7081 16.0087C18.7752 16.1936 18.9401 16.3738 19.0796 16.4697C19.2191 16.5656 19.3331 16.577 19.446 16.5759C19.5589 16.5747 19.6704 16.561 19.7541 16.6192C19.8377 16.6774 19.8935 16.8074 19.962 16.8976C20.0304 16.9877 20.1116 17.038 20.1889 17.1338C20.2662 17.2297 20.3397 17.3711 20.4348 17.5389C20.5299 17.7066 20.6465 17.9006 20.7505 18.0444C20.8545 18.1881 20.9458 18.2817 20.9343 18.3171C20.9229 18.3524 20.8089 18.3296 20.6922 18.244C20.5756 18.1584 20.4564 18.0101 20.3524 17.888C20.2485 17.7659 20.1597 17.6701 20.0723 17.5914C19.9848 17.5126 19.8985 17.451 19.8656 17.4716C19.8326 17.4921 19.8529 17.5948 19.8301 17.6051C19.8072 17.6153 19.7413 17.5331 19.6285 17.443C19.5157 17.3529 19.3558 17.2547 19.2811 17.2342C19.2063 17.2137 19.2165 17.2707 19.238 17.3357C19.2596 17.4008 19.2925 17.4738 19.2063 17.443C19.1201 17.4122 18.9147 17.2776 18.7436 17.1852C18.5724 17.0928 18.4354 17.0425 18.3607 17.0413C18.2859 17.0402 18.2733 17.0881 18.1757 17.0836C18.078 17.079 17.8954 17.022 17.6938 17.0117C17.4923 17.0014 17.2716 17.038 17.1081 17.1087C16.9446 17.1794 16.8381 17.2844 16.7861 17.4122C16.7341 17.54 16.7367 17.6906 16.7873 17.864C16.838 18.0375 16.9369 18.2338 17.1258 18.4483C17.3147 18.6628 17.5937 18.8955 17.8511 19.0655C18.1084 19.2356 18.3442 19.3428 18.5002 19.4022C18.6562 19.4615 18.7322 19.4729 18.6802 19.4033C18.6282 19.3337 18.4482 19.1831 18.2935 19.0336C18.1388 18.8842 18.0095 18.7359 17.9144 18.5921C17.8193 18.4483 17.7585 18.3091 17.7179 18.2041C17.6774 18.0991 17.6571 18.0284 17.7065 17.9884C17.756 17.9485 17.8754 17.9394 17.9361 17.9474C17.9969 17.9553 17.9994 17.9804 18.0222 18.0626C18.045 18.1447 18.0881 18.284 18.1832 18.4061C18.2783 18.5282 18.4253 18.6331 18.5889 18.689C18.7525 18.7449 18.9325 18.7518 19.0644 18.7312C19.1963 18.7107 19.2798 18.6628 19.3334 18.6164C19.387 18.5701 19.4104 18.5253 19.4777 18.5061C19.545 18.487 19.6562 18.4935 19.7727 18.5161C19.8892 18.5387 20.0112 18.5774 20.1152 18.6629C20.2191 18.7484 20.3052 18.8807 20.4003 18.9631C20.4953 19.0454 20.5992 19.0776 20.6835 19.0922C20.7679 19.1067 20.8323 19.1034 20.9238 19.1583C21.0152 19.2132 21.1336 19.3261 21.2555 19.4536C21.3774 19.5811 21.5029 19.7231 21.6123 19.8506C21.7216 19.9781 21.8149 20.091 21.9045 20.1927C21.9942 20.2944 22.0803 20.3848 22.1036 20.4509C22.1269 20.517 22.0874 20.5589 22.0605 20.6251C22.0336 20.6912 22.0193 20.7817 21.9727 20.8123C21.9261 20.843 21.8471 20.8139 21.7396 20.8429C21.632 20.872 21.4957 20.9592 21.4168 21.0576C21.338 21.156 21.3164 21.2658 21.3164 21.348C21.3164 21.4303 21.338 21.4852 21.2896 21.4965C21.2412 21.5078 21.1228 21.4755 20.965 21.369C20.8072 21.2625 20.61 21.0818 20.4702 20.8429C20.3303 20.6041 20.2478 20.3073 20.2012 20.1217C20.1546 19.9361 20.1439 19.8618 20.099 19.9473C20.0542 20.0328 19.9753 20.2782 19.9574 20.5896C19.9395 20.9011 19.9825 21.2786 20.1564 21.632C20.3303 21.9854 20.6351 22.3145 20.9076 22.505C21.1802 22.6954 21.4203 22.7471 21.5889 22.7632C21.7575 22.7794 21.8543 22.76 21.9583 22.7713C22.0623 22.7826 22.1735 22.8245 22.308 22.8003C22.4425 22.7761 22.6002 22.6857 22.7185 22.5921C22.8369 22.4985 22.9158 22.4017 22.9444 22.4114C22.9731 22.4211 22.9516 22.5372 22.9695 22.5679C22.9875 22.5986 23.0448 22.5438 23.1022 22.4631C23.1596 22.3824 23.2169 22.2758 23.2761 22.2549C23.3353 22.2339 23.3962 22.2985 23.4339 22.2517C23.4715 22.2049 23.4859 22.0467 23.4859 21.8563C23.4859 21.6659 23.4716 21.4432 23.4321 21.2593C23.3927 21.0753 23.3281 20.9301 23.2492 20.7655C23.1704 20.6009 23.0771 20.4169 22.9838 20.2717C22.8906 20.1265 22.7974 20.02 22.6916 19.8247C22.5858 19.6294 22.4675 19.3455 22.3886 19.1018C22.3097 18.8581 22.2703 18.6549 22.2775 18.4628C22.2846 18.2708 22.3384 18.0901 22.3742 17.9481C22.4101 17.806 22.4281 17.7027 22.4084 17.6721C22.3887 17.6415 22.3313 17.6834 22.3546 17.5591C22.3779 17.4349 22.4819 17.1441 22.5124 17.0103C22.5428 16.8766 22.4998 16.8992 22.5034 16.8136C22.507 16.7281 22.5571 16.5345 22.5554 16.378C22.5535 16.2214 22.4998 16.102 22.446 15.9842C22.3922 15.8664 22.3384 15.7503 22.2792 15.6599C22.2201 15.5696 22.1555 15.505 22.0945 15.3517C22.0336 15.1984 21.9762 14.9563 21.8525 14.7191C21.7288 14.4819 21.5387 14.2495 21.3612 14.0882C21.1837 13.9268 21.0188 13.8365 20.8593 13.8236C20.8493 13.8228 20.8393 13.8223 20.8294 13.8221L20.8294 13.8221ZM29.1706 13.8221C29.1607 13.8223 29.1507 13.8228 29.1408 13.8236C28.9813 13.8365 28.8163 13.9269 28.6388 14.0882C28.4613 14.2496 28.2713 14.4819 28.1476 14.7191C28.0239 14.9563 27.9665 15.1984 27.9055 15.3517C27.8446 15.505 27.78 15.5696 27.7208 15.6599C27.6617 15.7503 27.6079 15.8664 27.5541 15.9842C27.5003 16.102 27.4465 16.2214 27.4447 16.378C27.4429 16.5345 27.4931 16.7281 27.4967 16.8136C27.5002 16.8992 27.4573 16.8766 27.4877 17.0103C27.5181 17.1441 27.6222 17.4349 27.6455 17.5591C27.6688 17.6834 27.6114 17.6415 27.5917 17.6721C27.572 17.7027 27.59 17.806 27.6258 17.9481C27.6617 18.0901 27.7154 18.2708 27.7226 18.4628C27.7298 18.6549 27.6904 18.8581 27.6115 19.1018C27.5326 19.3455 27.4143 19.6295 27.3085 19.8247C27.2027 20.02 27.1095 20.1265 27.0162 20.2717C26.923 20.4169 26.8297 20.6009 26.7508 20.7655C26.6719 20.9301 26.6074 21.0753 26.568 21.2593C26.5285 21.4432 26.5142 21.6659 26.5142 21.8563C26.5142 22.0467 26.5285 22.2049 26.5662 22.2517C26.6039 22.2985 26.6648 22.2339 26.724 22.2549C26.7831 22.2758 26.8405 22.3824 26.8979 22.4631C26.9552 22.5438 27.0126 22.5986 27.0305 22.5679C27.0485 22.5372 27.027 22.4211 27.0556 22.4114C27.0843 22.4017 27.1632 22.4985 27.2815 22.5921C27.3999 22.6857 27.5576 22.7761 27.6921 22.8003C27.8266 22.8245 27.9378 22.7826 28.0418 22.7713C28.1458 22.76 28.2426 22.7794 28.4112 22.7632C28.5798 22.7471 28.8199 22.6954 29.0924 22.505C29.365 22.3145 29.6698 21.9854 29.8437 21.632C30.0176 21.2786 30.0606 20.9011 30.0427 20.5896C30.0247 20.2782 29.9458 20.0329 29.901 19.9473C29.8562 19.8618 29.8455 19.9361 29.7989 20.1217C29.7522 20.3073 29.6698 20.6041 29.5299 20.8429C29.39 21.0818 29.1929 21.2625 29.0351 21.369C28.8773 21.4755 28.7589 21.5078 28.7105 21.4965C28.6621 21.4852 28.6836 21.4303 28.6836 21.348C28.6836 21.2658 28.6621 21.156 28.5832 21.0576C28.5043 20.9592 28.368 20.872 28.2605 20.8429C28.1529 20.8139 28.074 20.843 28.0274 20.8123C27.9808 20.7817 27.9664 20.6912 27.9395 20.6251C27.9126 20.5589 27.8732 20.517 27.8965 20.4509C27.9198 20.3848 28.0059 20.2944 28.0956 20.1927C28.1852 20.091 28.2784 19.9781 28.3878 19.8506C28.4972 19.7231 28.6227 19.5811 28.7446 19.4536C28.8665 19.3261 28.9849 19.2132 29.0763 19.1583C29.1677 19.1034 29.2322 19.1067 29.3165 19.0922C29.4008 19.0776 29.5048 19.0454 29.5998 18.9631C29.6949 18.8807 29.7809 18.7484 29.8849 18.6629C29.9889 18.5774 30.1108 18.5387 30.2274 18.5161C30.3439 18.4935 30.4551 18.487 30.5224 18.5062C30.5897 18.5253 30.6131 18.5701 30.6667 18.6164C30.7202 18.6628 30.8038 18.7107 30.9357 18.7313C31.0676 18.7518 31.2476 18.7449 31.4111 18.689C31.5747 18.6331 31.7218 18.5282 31.8169 18.4061C31.912 18.284 31.955 18.1447 31.9778 18.0626C32.0007 17.9804 32.0032 17.9553 32.064 17.9474C32.1247 17.9394 32.2441 17.9485 32.2935 17.9884C32.343 18.0284 32.3227 18.0991 32.2821 18.2041C32.2415 18.3091 32.1807 18.4483 32.0856 18.5921C31.9905 18.7359 31.8613 18.8842 31.7066 19.0336C31.5519 19.1831 31.3719 19.3337 31.3199 19.4033C31.2679 19.4729 31.3439 19.4615 31.4999 19.4022C31.6559 19.3428 31.8916 19.2356 32.149 19.0655C32.4064 18.8955 32.6853 18.6628 32.8742 18.4483C33.0631 18.2338 33.162 18.0375 33.2127 17.8641C33.2634 17.6906 33.2659 17.54 33.2139 17.4122C33.1619 17.2844 33.0554 17.1794 32.8919 17.1087C32.7284 17.038 32.5077 17.0014 32.3062 17.0117C32.1046 17.022 31.922 17.079 31.8243 17.0836C31.7267 17.0881 31.7141 17.0402 31.6393 17.0413C31.5646 17.0425 31.4275 17.0928 31.2564 17.1852C31.0853 17.2776 30.8799 17.4122 30.7937 17.443C30.7075 17.4738 30.7404 17.4008 30.762 17.3357C30.7835 17.2707 30.7937 17.2137 30.7189 17.2342C30.6441 17.2547 30.4843 17.3529 30.3715 17.443C30.2587 17.5331 30.1928 17.6153 30.1699 17.6051C30.1471 17.5948 30.1674 17.4921 30.1344 17.4716C30.1014 17.451 30.0152 17.5126 29.9277 17.5914C29.8403 17.6701 29.7515 17.7659 29.6476 17.888C29.5436 18.0101 29.4244 18.1584 29.3078 18.244C29.1911 18.3296 29.0771 18.3524 29.0656 18.3171C29.0542 18.2817 29.1455 18.1881 29.2495 18.0444C29.3535 17.9006 29.4701 17.7066 29.5652 17.5389C29.6603 17.3711 29.7338 17.2297 29.8111 17.1338C29.8884 17.038 29.9696 16.9877 30.038 16.8976C30.1065 16.8074 30.1623 16.6774 30.2459 16.6192C30.3296 16.561 30.4411 16.5747 30.554 16.5759C30.6669 16.577 30.7809 16.5656 30.9204 16.4697C31.0599 16.3738 31.2247 16.1936 31.2919 16.0087C31.3591 15.8239 31.3287 15.6344 31.3363 15.5181C31.3439 15.4017 31.3895 15.3584 31.4567 15.3093C31.5239 15.2603 31.6127 15.2055 31.6634 15.1963C31.7141 15.1872 31.7268 15.2237 31.728 15.3585C31.7293 15.4933 31.7192 15.7258 31.6824 15.9471C31.6456 16.1685 31.5823 16.3785 31.5316 16.5293C31.481 16.6802 31.4431 16.7719 31.5425 16.7032C31.6419 16.6345 31.8786 16.4054 32.0561 16.023C32.2336 15.6405 32.352 15.1048 32.3394 14.7304C32.3268 14.3561 32.1833 14.143 32.0184 14.0462C31.8535 13.9494 31.6669 13.9688 31.4644 14.0688C31.2618 14.1689 31.0431 14.3496 30.88 14.5239C30.7168 14.6982 30.6092 14.866 30.5303 14.9127C30.4514 14.9595 30.4012 14.8853 30.3259 14.9063C30.2507 14.9273 30.1502 15.0435 30.0659 15.1774C29.9817 15.3114 29.9136 15.4631 29.8651 15.5082C29.8167 15.5534 29.788 15.4921 29.7074 15.605C29.6267 15.7178 29.494 16.0052 29.3524 16.286C29.2107 16.5668 29.06 16.8411 28.9489 17.0622C28.8377 17.2832 28.7661 17.4511 28.68 17.5027C28.5939 17.5543 28.4935 17.4898 28.4487 17.3413C28.4039 17.1929 28.4146 16.9605 28.4182 16.7927C28.4218 16.6249 28.4182 16.5216 28.4522 16.4425C28.4863 16.3635 28.558 16.3086 28.628 16.1747C28.6979 16.0407 28.766 15.8277 28.7732 15.6728C28.7803 15.5179 28.7265 15.4211 28.7552 15.3308C28.7839 15.2405 28.8952 15.1565 28.9525 15.1855C29.0099 15.2145 29.0135 15.3565 28.9884 15.5664C28.9633 15.7762 28.9095 16.0536 28.836 16.3183C28.7625 16.5829 28.6692 16.8347 28.6639 16.925C28.6585 17.0154 28.7409 16.9444 28.8951 16.7153C29.0493 16.4861 29.2752 16.0988 29.4258 15.7535C29.5764 15.4082 29.6518 15.1048 29.6697 14.8095C29.6876 14.5142 29.6482 14.227 29.5513 14.0511C29.4606 13.8862 29.3194 13.8192 29.1707 13.8221L29.1706 13.8221ZM21.817 20.326C21.642 20.3799 21.4614 20.4409 21.286 20.5106C21.059 20.6008 20.8421 20.7044 20.6371 20.8186C20.7588 21.0148 20.9211 21.186 21.1464 21.3046C21.1866 21.0623 21.4063 20.7617 21.722 20.7037C21.8665 20.7162 21.9229 20.6191 21.9453 20.503C21.9054 20.4434 21.8621 20.3845 21.817 20.326V20.326ZM28.183 20.326C28.1379 20.3845 28.0946 20.4434 28.0547 20.503C28.0771 20.6191 28.1335 20.7162 28.278 20.7037C28.5937 20.7617 28.8134 21.0623 28.8536 21.3046C29.0789 21.186 29.2412 21.0148 29.3629 20.8186C29.1579 20.7044 28.941 20.6008 28.714 20.5106C28.5386 20.4409 28.358 20.3799 28.183 20.326ZM19.8827 21.329C19.8795 21.3316 19.8763 21.3342 19.8731 21.3367C19.4769 21.6627 19.165 22.0273 18.8996 22.25C18.6342 22.4727 18.4155 22.5534 18.3975 22.5857C18.3796 22.618 18.5625 22.6018 18.5876 22.6405C18.6128 22.6792 18.48 22.7729 18.3168 22.8988C18.1536 23.0247 17.9601 23.1827 17.7198 23.2989C17.4795 23.4151 17.1927 23.4894 17.1156 23.541C17.0386 23.5927 17.1711 23.6217 17.3934 23.6216C17.6157 23.6216 17.9278 23.5926 18.2254 23.5168C18.523 23.4409 18.8064 23.3183 19.095 23.1424C19.3837 22.9665 19.6777 22.7373 19.8892 22.5469C20.1008 22.3565 20.2299 22.2049 20.2909 22.1532C20.2963 22.1486 20.3005 22.1458 20.3049 22.1427C20.1098 21.8998 19.9669 21.6214 19.8827 21.329V21.329ZM30.1173 21.329C30.0331 21.6214 29.8902 21.8998 29.6951 22.1427C29.6995 22.1458 29.7037 22.1486 29.7091 22.1532C29.7701 22.2049 29.8992 22.3565 30.1108 22.5469C30.3223 22.7373 30.6163 22.9665 30.905 23.1424C31.1936 23.3183 31.477 23.4409 31.7746 23.5168C32.0722 23.5926 32.3843 23.6216 32.6066 23.6216C32.8289 23.6217 32.9614 23.5927 32.8844 23.541C32.8073 23.4894 32.5205 23.4151 32.2802 23.2989C32.0399 23.1827 31.8464 23.0247 31.6832 22.8988C31.52 22.7729 31.3872 22.6792 31.4124 22.6405C31.4375 22.6018 31.6204 22.618 31.6025 22.5857C31.5845 22.5534 31.3658 22.4727 31.1004 22.25C30.835 22.0273 30.5231 21.6627 30.1269 21.3367C30.1237 21.3342 30.1205 21.3316 30.1173 21.329V21.329Z" fill="#DC3545"/>
<path d="M10.834 41.9268V43H4.09375V41.9268H10.834ZM10.6152 34.0039L4.4082 43H3.59473V42.0156L9.79492 33.0469H10.6152V34.0039ZM10.0547 33.0469V34.127H3.68359V33.0469H10.0547ZM20.0352 37.709V38.3379C20.0352 39.0853 19.9417 39.7552 19.7549 40.3477C19.568 40.9401 19.2992 41.4437 18.9482 41.8584C18.5973 42.2731 18.1758 42.5898 17.6836 42.8086C17.196 43.0273 16.6491 43.1367 16.043 43.1367C15.4551 43.1367 14.915 43.0273 14.4229 42.8086C13.9352 42.5898 13.5114 42.2731 13.1514 41.8584C12.7959 41.4437 12.5202 40.9401 12.3242 40.3477C12.1283 39.7552 12.0303 39.0853 12.0303 38.3379V37.709C12.0303 36.9616 12.126 36.2939 12.3174 35.7061C12.5133 35.1136 12.7891 34.61 13.1445 34.1953C13.5 33.776 13.9215 33.457 14.4092 33.2383C14.9014 33.0195 15.4414 32.9102 16.0293 32.9102C16.6354 32.9102 17.1823 33.0195 17.6699 33.2383C18.1621 33.457 18.5837 33.776 18.9346 34.1953C19.29 34.61 19.5612 35.1136 19.748 35.7061C19.9395 36.2939 20.0352 36.9616 20.0352 37.709ZM18.7295 38.3379V37.6953C18.7295 37.1029 18.668 36.5788 18.5449 36.123C18.4264 35.6673 18.251 35.2845 18.0186 34.9746C17.7861 34.6647 17.5013 34.43 17.1641 34.2705C16.8314 34.111 16.4531 34.0312 16.0293 34.0312C15.6191 34.0312 15.2477 34.111 14.915 34.2705C14.5869 34.43 14.3044 34.6647 14.0674 34.9746C13.835 35.2845 13.6549 35.6673 13.5273 36.123C13.3997 36.5788 13.3359 37.1029 13.3359 37.6953V38.3379C13.3359 38.9349 13.3997 39.4635 13.5273 39.9238C13.6549 40.3796 13.8372 40.7646 14.0742 41.0791C14.3158 41.389 14.6006 41.6237 14.9287 41.7832C15.2614 41.9427 15.6328 42.0225 16.043 42.0225C16.4714 42.0225 16.8519 41.9427 17.1846 41.7832C17.5173 41.6237 17.7975 41.389 18.0254 41.0791C18.2578 40.7646 18.4333 40.3796 18.5518 39.9238C18.6702 39.4635 18.7295 38.9349 18.7295 38.3379ZM22.0107 33.0469H25.3057C26.0531 33.0469 26.6842 33.1608 27.1992 33.3887C27.7188 33.6165 28.113 33.9538 28.3818 34.4004C28.6553 34.8424 28.792 35.387 28.792 36.0342C28.792 36.4899 28.6986 36.9069 28.5117 37.2852C28.3294 37.6589 28.0651 37.9779 27.7188 38.2422C27.377 38.502 26.9668 38.6956 26.4883 38.8232L26.1191 38.9668H23.0225L23.0088 37.8936H25.3467C25.8206 37.8936 26.2148 37.8115 26.5293 37.6475C26.8438 37.4788 27.0807 37.2533 27.2402 36.9707C27.3997 36.6882 27.4795 36.376 27.4795 36.0342C27.4795 35.6514 27.4043 35.3164 27.2539 35.0293C27.1035 34.7422 26.8665 34.5212 26.543 34.3662C26.224 34.2067 25.8115 34.127 25.3057 34.127H23.3301V43H22.0107V33.0469ZM27.8281 43L25.4082 38.4883L26.7822 38.4814L29.2363 42.918V43H27.8281ZM36.9609 41.9268V43H31.6904V41.9268H36.9609ZM31.957 33.0469V43H30.6377V33.0469H31.957ZM36.2637 37.3262V38.3994H31.6904V37.3262H36.2637ZM36.8926 33.0469V34.127H31.6904V33.0469H36.8926ZM39.4492 33.0469L41.8418 36.8613L44.2344 33.0469H45.7725L42.6279 37.9756L45.8477 43H44.2959L41.8418 39.1104L39.3877 43H37.8359L41.0557 37.9756L37.9111 33.0469H39.4492Z" fill="#DC3545"/>
</svg>
